LibreBaskerville-Italic.ufo
<glyph name="quotedbl" format="1">
  <advance width="359"/>
  <unicode hex="0022"/>
  <outline>
    <contour>
      <point x="183" y="564" type="line"/>
      <point x="221" y="661"/>
      <point x="275" y="779"/>
      <point x="275" y="795" type="curve" smooth="yes"/>
      <point x="275" y="816"/>
      <point x="261" y="830"/>
      <point x="239" y="830" type="curve" smooth="yes"/>
      <point x="159" y="830"/>
      <point x="175" y="724"/>
      <point x="154" y="564" type="curve"/>
    </contour>
    <contour>
      <point x="335" y="564" type="line"/>
      <point x="373" y="661"/>
      <point x="427" y="779"/>
      <point x="427" y="795" type="curve" smooth="yes"/>
      <point x="427" y="816"/>
      <point x="413" y="830"/>
      <point x="391" y="830" type="curve" smooth="yes"/>
      <point x="311" y="830"/>
      <point x="327" y="724"/>
      <point x="306" y="564" type="curve"/>
    </contour>
  </outline>
</glyph>
<glyph name="numbersign" format="1">
  <advance width="670"/>
  <unicode hex="0023"/>
  <outline>
    <contour>
      <point x="620" y="305" type="line"/>
      <point x="483" y="305" type="line"/>
      <point x="506" y="475" type="line"/>
      <point x="641" y="475" type="line"/>
      <point x="649" y="525" type="line"/>
      <point x="515" y="525" type="line"/>
      <point x="549" y="770" type="line"/>
      <point x="489" y="770" type="line"/>
      <point x="455" y="525" type="line"/>
      <point x="304" y="525" type="line"/>
      <point x="339" y="770" type="line"/>
      <point x="279" y="770" type="line"/>
      <point x="244" y="525" type="line"/>
      <point x="100" y="525" type="line"/>
      <point x="92" y="475" type="line"/>
      <point x="235" y="475" type="line"/>
      <point x="211" y="305" type="line"/>
      <point x="69" y="305" type="line"/>
      <point x="61" y="255" type="line"/>
      <point x="201" y="255" type="line"/>
      <point x="163" y="0" type="line"/>
      <point x="223" y="0" type="line"/>
      <point x="261" y="255" type="line"/>
      <point x="412" y="255" type="line"/>
      <point x="377" y="0" type="line"/>
      <point x="436" y="0" type="line"/>
      <point x="473" y="255" type="line"/>
      <point x="612" y="255" type="line"/>
    </contour>
    <contour>
      <point x="445" y="475" type="line"/>
      <point x="422" y="305" type="line"/>
      <point x="271" y="305" type="line"/>
      <point x="295" y="475" type="line"/>
    </contour>
  </outline>
</glyph>
<glyph name="asterisk" format="1">
  <advance width="532"/>
  <unicode hex="002A"/>
  <outline>
    <contour>
      <point x="332" y="536" type="curve"/>
      <point x="315" y="486"/>
      <point x="314" y="459"/>
      <point x="313" y="421" type="curve" smooth="yes"/>
      <point x="312" y="382"/>
      <point x="298" y="360"/>
      <point x="268" y="360" type="curve" smooth="yes"/>
      <point x="236" y="360"/>
      <point x="222" y="384"/>
      <point x="222" y="408" type="curve" smooth="yes"/>
      <point x="222" y="425"/>
      <point x="229" y="433"/>
      <point x="251" y="455" type="curve" smooth="yes"/>
      <point x="270" y="474"/>
      <point x="280" y="488"/>
      <point x="303" y="546" type="curve"/>
      <point x="194" y="527"/>
      <point x="188" y="491"/>
      <point x="157" y="491" type="curve" smooth="yes"/>
      <point x="132" y="491"/>
      <point x="112" y="514"/>
      <point x="112" y="538" type="curve" smooth="yes"/>
      <point x="112" y="561"/>
      <point x="130" y="583"/>
      <point x="161" y="583" type="curve" smooth="yes"/>
      <point x="184" y="583"/>
      <point x="207" y="570"/>
      <point x="242" y="570" type="curve" smooth="yes"/>
      <point x="256" y="570"/>
      <point x="276" y="572"/>
      <point x="298" y="576" type="curve"/>
      <point x="222" y="663"/>
      <point x="172" y="644"/>
      <point x="172" y="693" type="curve" smooth="yes"/>
      <point x="172" y="727"/>
      <point x="196" y="740"/>
      <point x="219" y="740" type="curve" smooth="yes"/>
      <point x="270" y="740"/>
      <point x="256" y="674"/>
      <point x="322" y="595" type="curve"/>
      <point x="338" y="641"/>
      <point x="339" y="675"/>
      <point x="339" y="713" type="curve" smooth="yes"/>
      <point x="339" y="749"/>
      <point x="358" y="770"/>
      <point x="384" y="770" type="curve" smooth="yes"/>
      <point x="412" y="770"/>
      <point x="431" y="746"/>
      <point x="431" y="725" type="curve" smooth="yes"/>
      <point x="431" y="690"/>
      <point x="379" y="661"/>
      <point x="350" y="584" type="curve"/>
      <point x="445" y="602"/>
      <point x="466" y="640"/>
      <point x="496" y="640" type="curve" smooth="yes"/>
      <point x="519" y="640"/>
      <point x="540" y="617"/>
      <point x="540" y="593" type="curve" smooth="yes"/>
      <point x="540" y="574"/>
      <point x="526" y="549"/>
      <point x="494" y="549" type="curve" smooth="yes"/>
      <point x="473" y="549"/>
      <point x="455" y="560"/>
      <point x="419" y="560" type="curve" smooth="yes"/>
      <point x="403" y="560"/>
      <point x="380" y="558"/>
      <point x="356" y="554" type="curve"/>
      <point x="417" y="481"/>
      <point x="484" y="487"/>
      <point x="484" y="435" type="curve" smooth="yes"/>
      <point x="484" y="405"/>
      <point x="462" y="390"/>
      <point x="438" y="390" type="curve" smooth="yes"/>
      <point x="402" y="390"/>
      <point x="392" y="424"/>
      <point x="387" y="446" type="curve" smooth="yes"/>
      <point x="382" y="467"/>
      <point x="358" y="509"/>
    </contour>
  </outline>
</glyph>
<glyph name="period" format="1">
  <advance width="262"/>
  <unicode hex="002E"/>
  <outline>
    <contour>
      <point x="68" y="-10" type="curve" smooth="yes"/>
      <point x="107" y="-10"/>
      <point x="139" y="20"/>
      <point x="139" y="59" type="curve" smooth="yes"/>
      <point x="139" y="97"/>
      <point x="109" y="130"/>
      <point x="68" y="130" type="curve" smooth="yes"/>
      <point x="29" y="130"/>
      <point x="-1" y="98"/>
      <point x="-1" y="58" type="curve" smooth="yes"/>
      <point x="-1" y="18"/>
      <point x="31" y="-10"/>
    </contour>
  </outline>
</glyph>
<glyph name="three" format="1">
  <advance width="617"/>
  <unicode hex="0033"/>
  <outline>
    <contour>
      <point x="411" y="219" type="curve" smooth="yes"/>
      <point x="411" y="308"/>
      <point x="363" y="375"/>
      <point x="299" y="375" type="curve" smooth="yes"/>
      <point x="276" y="375"/>
      <point x="242" y="367"/>
      <point x="220" y="367" type="curve" smooth="yes"/>
      <point x="199" y="367"/>
      <point x="188" y="374"/>
      <point x="188" y="387" type="curve" smooth="yes"/>
      <point x="188" y="454"/>
      <point x="455" y="384"/>
      <point x="455" y="618" type="curve" smooth="yes"/>
      <point x="455" y="694"/>
      <point x="427" y="729"/>
      <point x="365" y="729" type="curve" smooth="yes"/>
      <point x="295" y="729"/>
      <point x="246" y="686"/>
      <point x="246" y="626" type="curve" smooth="yes"/>
      <point x="246" y="585"/>
      <point x="269" y="561"/>
      <point x="308" y="561" type="curve"/>
      <point x="298" y="538"/>
      <point x="271" y="523"/>
      <point x="240" y="523" type="curve" smooth="yes"/>
      <point x="189" y="523"/>
      <point x="155" y="560"/>
      <point x="155" y="616" type="curve" smooth="yes"/>
      <point x="155" y="710"/>
      <point x="248" y="780"/>
      <point x="373" y="780" type="curve" smooth="yes"/>
      <point x="490" y="780"/>
      <point x="565" y="720"/>
      <point x="565" y="626" type="curve" smooth="yes"/>
      <point x="565" y="533"/>
      <point x="485" y="440"/>
      <point x="384" y="417" type="curve"/>
      <point x="384" y="411" type="line"/>
      <point x="475" y="387"/>
      <point x="529" y="321"/>
      <point x="529" y="235" type="curve" smooth="yes"/>
      <point x="529" y="100"/>
      <point x="395" y="-10"/>
      <point x="231" y="-10" type="curve" smooth="yes"/>
      <point x="108" y="-10"/>
      <point x="24" y="53"/>
      <point x="24" y="145" type="curve" smooth="yes"/>
      <point x="24" y="220"/>
      <point x="80" y="284"/>
      <point x="147" y="284" type="curve" smooth="yes"/>
      <point x="182" y="284"/>
      <point x="210" y="266"/>
      <point x="215" y="240" type="curve"/>
      <point x="166" y="240"/>
      <point x="124" y="192"/>
      <point x="124" y="134" type="curve" smooth="yes"/>
      <point x="124" y="76"/>
      <point x="166" y="42"/>
      <point x="239" y="42" type="curve" smooth="yes"/>
      <point x="342" y="42"/>
      <point x="411" y="113"/>
    </contour>
  </outline>
</glyph>
<glyph name="six" format="1">
  <advance width="635"/>
  <unicode hex="0036"/>
  <outline>
    <contour>
      <point x="559" y="279" type="curve" smooth="yes"/>
      <point x="559" y="404"/>
      <point x="475" y="488"/>
      <point x="350" y="488" type="curve" smooth="yes"/>
      <point x="301" y="488"/>
      <point x="257" y="475"/>
      <point x="213" y="448" type="curve"/>
      <point x="210" y="450" type="line"/>
      <point x="254" y="617"/>
      <point x="361" y="735"/>
      <point x="468" y="735" type="curve" smooth="yes"/>
      <point x="509" y="735"/>
      <point x="521" y="714"/>
      <point x="521" y="671" type="curve" smooth="yes"/>
      <point x="521" y="634"/>
      <point x="542" y="616"/>
      <point x="570" y="616" type="curve" smooth="yes"/>
      <point x="603" y="616"/>
      <point x="624" y="639"/>
      <point x="624" y="673" type="curve" smooth="yes"/>
      <point x="624" y="734"/>
      <point x="557" y="780"/>
      <point x="468" y="780" type="curve" smooth="yes"/>
      <point x="263" y="780"/>
      <point x="71" y="534"/>
      <point x="71" y="270" type="curve" smooth="yes"/>
      <point x="71" y="98"/>
      <point x="153" y="-10"/>
      <point x="284" y="-10" type="curve" smooth="yes"/>
      <point x="430" y="-10"/>
      <point x="559" y="125"/>
    </contour>
    <contour>
      <point x="332" y="439" type="curve" smooth="yes"/>
      <point x="403" y="439"/>
      <point x="440" y="387"/>
      <point x="440" y="285" type="curve" smooth="yes"/>
      <point x="440" y="144"/>
      <point x="370" y="35"/>
      <point x="278" y="35" type="curve" smooth="yes"/>
      <point x="209" y="35"/>
      <point x="172" y="94"/>
      <point x="172" y="202" type="curve" smooth="yes"/>
      <point x="172" y="344"/>
      <point x="236" y="439"/>
    </contour>
  </outline>
</glyph>
<glyph name="eight" format="1">
  <advance width="639"/>
  <unicode hex="0038"/>
  <outline>
    <contour>
      <point x="416" y="429" type="curve"/>
      <point x="518" y="448"/>
      <point x="597" y="530"/>
      <point x="597" y="619" type="curve" smooth="yes"/>
      <point x="597" y="711"/>
      <point x="508" y="780"/>
      <point x="392" y="780" type="curve" smooth="yes"/>
      <point x="260" y="780"/>
      <point x="146" y="689"/>
      <point x="146" y="577" type="curve" smooth="yes"/>
      <point x="146" y="512"/>
      <point x="184" y="450"/>
      <point x="253" y="404" type="curve"/>
      <point x="112" y="364"/>
      <point x="43" y="291"/>
      <point x="43" y="182" type="curve" smooth="yes"/>
      <point x="43" y="62"/>
      <point x="127" y="-10"/>
      <point x="266" y="-10" type="curve" smooth="yes"/>
      <point x="427" y="-10"/>
      <point x="543" y="87"/>
      <point x="543" y="222" type="curve" smooth="yes"/>
      <point x="543" y="303"/>
      <point x="505" y="374"/>
    </contour>
    <contour>
      <point x="342" y="349" type="line"/>
      <point x="406" y="305"/>
      <point x="439" y="257"/>
      <point x="439" y="192" type="curve" smooth="yes"/>
      <point x="439" y="105"/>
      <point x="370" y="43"/>
      <point x="272" y="43" type="curve" smooth="yes"/>
      <point x="188" y="43"/>
      <point x="144" y="89"/>
      <point x="144" y="175" type="curve" smooth="yes"/>
      <point x="144" y="270"/>
      <point x="192" y="339"/>
      <point x="290" y="383" type="curve"/>
    </contour>
    <contour>
      <point x="337" y="476" type="line" smooth="yes"/>
      <point x="279" y="514"/>
      <point x="250" y="566"/>
      <point x="250" y="611" type="curve" smooth="yes"/>
      <point x="250" y="680"/>
      <point x="309" y="728"/>
      <point x="384" y="728" type="curve" smooth="yes"/>
      <point x="459" y="728"/>
      <point x="502" y="680"/>
      <point x="502" y="615" type="curve" smooth="yes"/>
      <point x="502" y="546"/>
      <point x="458" y="493"/>
      <point x="378" y="450" type="curve"/>
    </contour>
  </outline>
</glyph>
<glyph name="semicolon" format="1">
  <advance width="306"/>
  <unicode hex="003B"/>
  <outline>
    <contour>
      <point x="166" y="300" type="curve" smooth="yes"/>
      <point x="205" y="300"/>
      <point x="237" y="330"/>
      <point x="237" y="369" type="curve" smooth="yes"/>
      <point x="237" y="407"/>
      <point x="207" y="440"/>
      <point x="166" y="440" type="curve" smooth="yes"/>
      <point x="127" y="440"/>
      <point x="97" y="408"/>
      <point x="97" y="368" type="curve" smooth="yes"/>
      <point x="97" y="328"/>
      <point x="129" y="300"/>
    </contour>
    <contour>
      <point x="87" y="3" type="curve"/>
      <point x="87" y="-36"/>
      <point x="48" y="-93"/>
      <point x="-23" y="-143" type="curve"/>
      <point x="0" y="-175" type="line"/>
      <point x="100" y="-103"/>
      <point x="155" y="-15"/>
      <point x="155" y="59" type="curve" smooth="yes"/>
      <point x="155" y="97"/>
      <point x="125" y="130"/>
      <point x="84" y="130" type="curve" smooth="yes"/>
      <point x="45" y="130"/>
      <point x="15" y="98"/>
      <point x="15" y="58" type="curve" smooth="yes"/>
      <point x="15" y="24"/>
      <point x="32" y="0"/>
      <point x="66" y="0" type="curve" smooth="yes"/>
      <point x="72" y="0"/>
      <point x="79" y="1"/>
    </contour>
  </outline>
</glyph>
<glyph name="question" format="1">
  <advance width="468"/>
  <unicode hex="003F"/>
  <outline>
    <contour>
      <point x="195" y="-10" type="curve" smooth="yes"/>
      <point x="231" y="-10"/>
      <point x="259" y="18"/>
      <point x="259" y="52" type="curve" smooth="yes"/>
      <point x="259" y="87"/>
      <point x="231" y="116"/>
      <point x="196" y="116" type="curve" smooth="yes"/>
      <point x="161" y="116"/>
      <point x="133" y="88"/>
      <point x="133" y="52" type="curve" smooth="yes"/>
      <point x="133" y="17"/>
      <point x="160" y="-10"/>
    </contour>
    <contour>
      <point x="142" y="290" type="curve" smooth="yes"/>
      <point x="142" y="226"/>
      <point x="174" y="191"/>
      <point x="232" y="191" type="curve" smooth="yes"/>
      <point x="280" y="191"/>
      <point x="317" y="216"/>
      <point x="343" y="269" type="curve"/>
      <point x="316" y="285" type="line"/>
      <point x="297" y="250"/>
      <point x="274" y="234"/>
      <point x="242" y="234" type="curve" smooth="yes"/>
      <point x="212" y="234"/>
      <point x="196" y="248"/>
      <point x="196" y="274" type="curve" smooth="yes"/>
      <point x="196" y="384"/>
      <point x="486" y="419"/>
      <point x="486" y="621" type="curve" smooth="yes"/>
      <point x="486" y="717"/>
      <point x="420" y="781"/>
      <point x="319" y="781" type="curve" smooth="yes"/>
      <point x="217" y="781"/>
      <point x="134" y="715"/>
      <point x="134" y="634" type="curve" smooth="yes"/>
      <point x="134" y="577"/>
      <point x="176" y="533"/>
      <point x="230" y="533" type="curve" smooth="yes"/>
      <point x="264" y="533"/>
      <point x="285" y="551"/>
      <point x="285" y="582" type="curve" smooth="yes"/>
      <point x="285" y="640"/>
      <point x="215" y="606"/>
      <point x="215" y="660" type="curve" smooth="yes"/>
      <point x="215" y="702"/>
      <point x="258" y="733"/>
      <point x="314" y="733" type="curve" smooth="yes"/>
      <point x="377" y="733"/>
      <point x="422" y="693"/>
      <point x="422" y="638" type="curve" smooth="yes"/>
      <point x="422" y="501"/>
      <point x="142" y="480"/>
    </contour>
  </outline>
</glyph>
<glyph name="at" format="1">
  <advance width="1030"/>
  <unicode hex="0040"/>
  <outline>
    <contour>
      <point x="707" y="530" type="line"/>
      <point x="803" y="530" type="line"/>
      <point x="736" y="293" type="line" smooth="yes"/>
      <point x="721" y="240"/>
      <point x="710" y="187"/>
      <point x="710" y="167" type="curve" smooth="yes"/>
      <point x="710" y="142"/>
      <point x="727" y="127"/>
      <point x="754" y="127" type="curve" smooth="yes"/>
      <point x="842" y="127"/>
      <point x="935" y="277"/>
      <point x="935" y="420" type="curve" smooth="yes"/>
      <point x="935" y="601"/>
      <point x="787" y="735"/>
      <point x="585" y="735" type="curve" smooth="yes"/>
      <point x="344" y="735"/>
      <point x="157" y="545"/>
      <point x="157" y="299" type="curve" smooth="yes"/>
      <point x="157" y="70"/>
      <point x="321" y="-86"/>
      <point x="564" y="-86" type="curve" smooth="yes"/>
      <point x="676" y="-86"/>
      <point x="781" y="-53"/>
      <point x="878" y="14" type="curve"/>
      <point x="899" y="-17" type="line"/>
      <point x="782" y="-98"/>
      <point x="676" y="-134"/>
      <point x="551" y="-134" type="curve" smooth="yes"/>
      <point x="267" y="-134"/>
      <point x="66" y="46"/>
      <point x="66" y="300" type="curve" smooth="yes"/>
      <point x="66" y="570"/>
      <point x="291" y="780"/>
      <point x="579" y="780" type="curve" smooth="yes"/>
      <point x="818" y="780"/>
      <point x="980" y="635"/>
      <point x="980" y="422" type="curve" smooth="yes"/>
      <point x="980" y="239"/>
      <point x="861" y="77"/>
      <point x="726" y="77" type="curve" smooth="yes"/>
      <point x="661" y="77"/>
      <point x="625" y="115"/>
      <point x="619" y="191" type="curve"/>
      <point x="616" y="192" type="line"/>
      <point x="575" y="123"/>
      <point x="509" y="77"/>
      <point x="448" y="77" type="curve" smooth="yes"/>
      <point x="362" y="77"/>
      <point x="298" y="149"/>
      <point x="298" y="248" type="curve" smooth="yes"/>
      <point x="298" y="394"/>
      <point x="431" y="540"/>
      <point x="564" y="540" type="curve" smooth="yes"/>
      <point x="626" y="540"/>
      <point x="662" y="509"/>
      <point x="681" y="442" type="curve"/>
      <point x="684" y="441" type="line"/>
    </contour>
    <contour>
      <point x="572" y="498" type="curve" smooth="yes"/>
      <point x="484" y="498"/>
      <point x="396" y="362"/>
      <point x="396" y="227" type="curve" smooth="yes"/>
      <point x="396" y="158"/>
      <point x="419" y="122"/>
      <point x="463" y="122" type="curve" smooth="yes"/>
      <point x="549" y="122"/>
      <point x="648" y="267"/>
      <point x="648" y="394" type="curve" smooth="yes"/>
      <point x="648" y="459"/>
      <point x="620" y="498"/>
    </contour>
  </outline>
</glyph>
<glyph name="C" format="1">
  <advance width="728"/>
  <unicode hex="0043"/>
  <outline>
    <contour>
      <point x="523" y="830" type="move" name="topcap"/>
    </contour>
    <contour>
      <point x="354" y="0" type="move" name="bottom"/>
    </contour>
    <contour>
      <point x="665" y="189" type="curve"/>
      <point x="629" y="213" type="line"/>
      <point x="558" y="102"/>
      <point x="483" y="52"/>
      <point x="387" y="52" type="curve" smooth="yes"/>
      <point x="260" y="52"/>
      <point x="194" y="136"/>
      <point x="194" y="300" type="curve" smooth="yes"/>
      <point x="194" y="540"/>
      <point x="331" y="728"/>
      <point x="506" y="728" type="curve" smooth="yes"/>
      <point x="608" y="728"/>
      <point x="658" y="663"/>
      <point x="668" y="519" type="curve"/>
      <point x="706" y="519" type="line"/>
      <point x="752" y="770" type="line"/>
      <point x="715" y="770" type="line"/>
      <point x="678" y="720" type="line"/>
      <point x="619" y="761"/>
      <point x="562" y="780"/>
      <point x="498" y="780" type="curve" smooth="yes"/>
      <point x="273" y="780"/>
      <point x="73" y="554"/>
      <point x="73" y="301" type="curve" smooth="yes"/>
      <point x="73" y="110"/>
      <point x="185" y="-10"/>
      <point x="365" y="-10" type="curve" smooth="yes"/>
      <point x="488" y="-10"/>
      <point x="573" y="47"/>
    </contour>
  </outline>
</glyph>
<glyph name="H" format="1">
  <advance width="911"/>
  <unicode hex="0048"/>
  <outline>
    <contour>
      <point x="599" y="830" type="move" name="topcap"/>
    </contour>
    <contour>
      <point x="377" y="0" type="move" name="bottom"/>
    </contour>
    <contour>
      <point x="820" y="566" type="line" smooth="yes"/>
      <point x="856" y="702"/>
      <point x="879" y="730"/>
      <point x="967" y="730" type="curve"/>
      <point x="978" y="770" type="line"/>
      <point x="653" y="770" type="line"/>
      <point x="642" y="730" type="line"/>
      <point x="714" y="730"/>
      <point x="741" y="723"/>
      <point x="741" y="682" type="curve" smooth="yes"/>
      <point x="741" y="663"/>
      <point x="736" y="637"/>
      <point x="726" y="600" type="curve" smooth="yes"/>
      <point x="678" y="418" type="line"/>
      <point x="290" y="418" type="line"/>
      <point x="329" y="566" type="line" smooth="yes"/>
      <point x="365" y="702"/>
      <point x="388" y="730"/>
      <point x="476" y="730" type="curve"/>
      <point x="487" y="770" type="line"/>
      <point x="162" y="770" type="line"/>
      <point x="151" y="730" type="line"/>
      <point x="223" y="730"/>
      <point x="250" y="723"/>
      <point x="250" y="682" type="curve" smooth="yes"/>
      <point x="250" y="663"/>
      <point x="245" y="637"/>
      <point x="235" y="600" type="curve" smooth="yes"/>
      <point x="118" y="158" type="line" smooth="yes"/>
      <point x="92" y="60"/>
      <point x="62" y="40"/>
      <point x="-17" y="40" type="curve"/>
      <point x="-28" y="0" type="line"/>
      <point x="291" y="0" type="line"/>
      <point x="303" y="40" type="line"/>
      <point x="239" y="40"/>
      <point x="212" y="53"/>
      <point x="212" y="98" type="curve" smooth="yes"/>
      <point x="212" y="116"/>
      <point x="216" y="139"/>
      <point x="224" y="168" type="curve" smooth="yes"/>
      <point x="276" y="367" type="line"/>
      <point x="664" y="367" type="line"/>
      <point x="609" y="158" type="line" smooth="yes"/>
      <point x="583" y="60"/>
      <point x="553" y="40"/>
      <point x="474" y="40" type="curve"/>
      <point x="463" y="0" type="line"/>
      <point x="782" y="0" type="line"/>
      <point x="794" y="40" type="line"/>
      <point x="730" y="40"/>
      <point x="703" y="53"/>
      <point x="703" y="98" type="curve" smooth="yes"/>
      <point x="703" y="116"/>
      <point x="707" y="139"/>
      <point x="715" y="168" type="curve" smooth="yes"/>
    </contour>
  </outline>
</glyph>
<glyph name="I" format="1">
  <advance width="420"/>
  <unicode hex="0049"/>
  <outline>
    <contour>
      <point x="351" y="830" type="move" name="topcap"/>
    </contour>
    <contour>
      <point x="124" y="0" type="move" name="bottom"/>
    </contour>
    <contour>
      <point x="329" y="566" type="line" smooth="yes"/>
      <point x="365" y="702"/>
      <point x="388" y="730"/>
      <point x="476" y="730" type="curve"/>
      <point x="487" y="770" type="line"/>
      <point x="162" y="770" type="line"/>
      <point x="151" y="730" type="line"/>
      <point x="223" y="730"/>
      <point x="250" y="723"/>
      <point x="250" y="682" type="curve" smooth="yes"/>
      <point x="250" y="663"/>
      <point x="245" y="637"/>
      <point x="235" y="600" type="curve" smooth="yes"/>
      <point x="118" y="158" type="line" smooth="yes"/>
      <point x="92" y="60"/>
      <point x="62" y="40"/>
      <point x="-17" y="40" type="curve"/>
      <point x="-28" y="0" type="line"/>
      <point x="291" y="0" type="line"/>
      <point x="303" y="40" type="line"/>
      <point x="239" y="40"/>
      <point x="212" y="53"/>
      <point x="212" y="98" type="curve" smooth="yes"/>
      <point x="212" y="116"/>
      <point x="216" y="139"/>
      <point x="224" y="168" type="curve" smooth="yes"/>
    </contour>
  </outline>
</glyph>
<glyph name="Q" format="1">
  <advance width="834"/>
  <unicode hex="0051"/>
  <outline>
    <contour>
      <point x="513" y="780" type="curve" smooth="yes"/>
      <point x="278" y="780"/>
      <point x="74" y="558"/>
      <point x="74" y="304" type="curve" smooth="yes"/>
      <point x="74" y="119"/>
      <point x="181" y="-3"/>
      <point x="347" y="-10" type="curve"/>
      <point x="155" y="-91" type="line" smooth="yes"/>
      <point x="84" y="-121"/>
      <point x="62" y="-142"/>
      <point x="62" y="-176" type="curve" smooth="yes"/>
      <point x="62" y="-207"/>
      <point x="81" y="-226"/>
      <point x="113" y="-226" type="curve" smooth="yes"/>
      <point x="186" y="-226"/>
      <point x="185" y="-129"/>
      <point x="258" y="-129" type="curve" smooth="yes"/>
      <point x="342" y="-129"/>
      <point x="414" y="-260"/>
      <point x="565" y="-260" type="curve" smooth="yes"/>
      <point x="677" y="-260"/>
      <point x="767" y="-188"/>
      <point x="791" y="-79" type="curve"/>
      <point x="758" y="-64" type="line"/>
      <point x="738" y="-133"/>
      <point x="681" y="-168"/>
      <point x="614" y="-168" type="curve" smooth="yes"/>
      <point x="507" y="-168"/>
      <point x="456" y="-77"/>
      <point x="344" y="-77" type="curve"/>
      <point x="342" y="-74" type="line"/>
      <point x="559" y="44" type="line" smooth="yes"/>
      <point x="699" y="120"/>
      <point x="798" y="287"/>
      <point x="798" y="467" type="curve" smooth="yes"/>
      <point x="798" y="658"/>
      <point x="687" y="780"/>
    </contour>
    <contour>
      <point x="513" y="728" type="curve" smooth="yes"/>
      <point x="625" y="728"/>
      <point x="677" y="654"/>
      <point x="677" y="494" type="curve" smooth="yes"/>
      <point x="677" y="241"/>
      <point x="548" y="52"/>
      <point x="375" y="52" type="curve" smooth="yes"/>
      <point x="258" y="52"/>
      <point x="195" y="139"/>
      <point x="195" y="301" type="curve" smooth="yes"/>
      <point x="195" y="541"/>
      <point x="335" y="728"/>
    </contour>
  </outline>
</glyph>
<glyph name="U" format="1">
  <advance width="808"/>
  <unicode hex="0055"/>
  <outline>
    <contour>
      <point x="543" y="830" type="move" name="topcap"/>
    </contour>
    <contour>
      <point x="345" y="0" type="move" name="bottom"/>
    </contour>
    <contour>
      <point x="134" y="353" type="line" smooth="yes"/>
      <point x="121" y="304"/>
      <point x="114" y="261"/>
      <point x="114" y="219" type="curve" smooth="yes"/>
      <point x="114" y="73"/>
      <point x="198" y="-10"/>
      <point x="367" y="-10" type="curve" smooth="yes"/>
      <point x="539" y="-10"/>
      <point x="653" y="128"/>
      <point x="710" y="392" type="curve" smooth="yes"/>
      <point x="753" y="592" type="line" smooth="yes"/>
      <point x="779" y="712"/>
      <point x="798" y="730"/>
      <point x="863" y="730" type="curve"/>
      <point x="875" y="770" type="line"/>
      <point x="612" y="770" type="line"/>
      <point x="600" y="730" type="line"/>
      <point x="662" y="727"/>
      <point x="702" y="710"/>
      <point x="702" y="670" type="curve" smooth="yes"/>
      <point x="702" y="624"/>
      <point x="663" y="418"/>
      <point x="622" y="290" type="curve" smooth="yes"/>
      <point x="577" y="150"/>
      <point x="507" y="46"/>
      <point x="375" y="46" type="curve" smooth="yes"/>
      <point x="270" y="46"/>
      <point x="214" y="114"/>
      <point x="214" y="220" type="curve" smooth="yes"/>
      <point x="214" y="248"/>
      <point x="218" y="280"/>
      <point x="227" y="314" type="curve" smooth="yes"/>
      <point x="292" y="565" type="line" smooth="yes"/>
      <point x="329" y="710"/>
      <point x="345" y="730"/>
      <point x="440" y="730" type="curve"/>
      <point x="451" y="770" type="line"/>
      <point x="132" y="770" type="line"/>
      <point x="119" y="730" type="line"/>
      <point x="188" y="730"/>
      <point x="213" y="716"/>
      <point x="213" y="676" type="curve" smooth="yes"/>
      <point x="213" y="657"/>
      <point x="207" y="626"/>
      <point x="200" y="599" type="curve" smooth="yes"/>
    </contour>
  </outline>
</glyph>
<glyph name="Y" format="1">
  <advance width="689"/>
  <unicode hex="0059"/>
  <outline>
    <contour>
      <point x="480" y="830" type="move" name="topcap"/>
    </contour>
    <contour>
      <point x="440" y="348" type="line"/>
      <point x="654" y="649" type="line" smooth="yes"/>
      <point x="701" y="716"/>
      <point x="714" y="730"/>
      <point x="768" y="730" type="curve"/>
      <point x="779" y="770" type="line"/>
      <point x="532" y="770" type="line"/>
      <point x="521" y="730" type="line"/>
      <point x="567" y="730"/>
      <point x="595" y="715"/>
      <point x="595" y="687" type="curve" smooth="yes"/>
      <point x="595" y="663"/>
      <point x="583" y="646"/>
      <point x="554" y="604" type="curve" smooth="yes"/>
      <point x="415" y="401" type="line"/>
      <point x="308" y="659" type="line" smooth="yes"/>
      <point x="302" y="673"/>
      <point x="300" y="686"/>
      <point x="300" y="695" type="curve" smooth="yes"/>
      <point x="300" y="721"/>
      <point x="321" y="730"/>
      <point x="371" y="730" type="curve"/>
      <point x="382" y="770" type="line"/>
      <point x="101" y="770" type="line"/>
      <point x="90" y="730" type="line"/>
      <point x="156" y="730"/>
      <point x="173" y="720"/>
      <point x="213" y="624" type="curve" smooth="yes"/>
      <point x="333" y="336" type="line"/>
      <point x="287" y="158" type="line" smooth="yes"/>
      <point x="261" y="59"/>
      <point x="228" y="40"/>
      <point x="142" y="40" type="curve"/>
      <point x="131" y="0" type="line"/>
      <point x="470" y="0" type="line"/>
      <point x="482" y="40" type="line"/>
      <point x="411" y="40"/>
      <point x="381" y="53"/>
      <point x="381" y="98" type="curve" smooth="yes"/>
      <point x="381" y="116"/>
      <point x="385" y="139"/>
      <point x="393" y="168" type="curve" smooth="yes"/>
    </contour>
  </outline>
</glyph>
<glyph name="Z" format="1">
  <advance width="672"/>
  <unicode hex="005A"/>
  <outline>
    <contour>
      <point x="468" y="830" type="move" name="topcap"/>
    </contour>
    <contour>
      <point x="259" y="0" type="move" name="bottom"/>
    </contour>
    <contour>
      <point x="696" y="751" type="line"/>
      <point x="696" y="770" type="line"/>
      <point x="211" y="770" type="line"/>
      <point x="110" y="572" type="line"/>
      <point x="153" y="572" type="line"/>
      <point x="230" y="698"/>
      <point x="276" y="722"/>
      <point x="435" y="722" type="curve" smooth="yes"/>
      <point x="536" y="722" type="line"/>
      <point x="-7" y="21" type="line"/>
      <point x="-7" y="0" type="line"/>
      <point x="524" y="0" type="line"/>
      <point x="608" y="221" type="line"/>
      <point x="565" y="221" type="line"/>
      <point x="507" y="96"/>
      <point x="409" y="50"/>
      <point x="283" y="50" type="curve" smooth="yes"/>
      <point x="158" y="50" type="line"/>
    </contour>
  </outline>
</glyph>
<glyph name="a" format="1">
  <advance width="570"/>
  <unicode hex="0061"/>
  <outline>
    <contour>
      <point x="370" y="651" type="move" name="top"/>
    </contour>
    <contour>
      <point x="350" y="0" type="move" name="bottom"/>
    </contour>
    <contour>
      <point x="332" y="488" type="curve" smooth="yes"/>
      <point x="357" y="488"/>
      <point x="373" y="467"/>
      <point x="373" y="432" type="curve" smooth="yes"/>
      <point x="373" y="303"/>
      <point x="254" y="61"/>
      <point x="161" y="61" type="curve" smooth="yes"/>
      <point x="127" y="61"/>
      <point x="105" y="92"/>
      <point x="105" y="140" type="curve" smooth="yes"/>
      <point x="105" y="278"/>
      <point x="230" y="488"/>
    </contour>
    <contour>
      <point x="414" y="474" type="line"/>
      <point x="397" y="520"/>
      <point x="370" y="540"/>
      <point x="326" y="540" type="curve" smooth="yes"/>
      <point x="182" y="540"/>
      <point x="10" y="319"/>
      <point x="10" y="135" type="curve" smooth="yes"/>
      <point x="10" y="45"/>
      <point x="51" y="-10"/>
      <point x="118" y="-10" type="curve" smooth="yes"/>
      <point x="184" y="-10"/>
      <point x="260" y="45"/>
      <point x="299" y="119" type="curve"/>
      <point x="303" y="118" type="line"/>
      <point x="301" y="92"/>
      <point x="300" y="77"/>
      <point x="300" y="65" type="curve" smooth="yes"/>
      <point x="300" y="12"/>
      <point x="317" y="-10"/>
      <point x="348" y="-10" type="curve" smooth="yes"/>
      <point x="408" y="-10"/>
      <point x="477" y="47"/>
      <point x="532" y="145" type="curve"/>
      <point x="506" y="166" type="line"/>
      <point x="462" y="105"/>
      <point x="425" y="62"/>
      <point x="406" y="62" type="curve" smooth="yes"/>
      <point x="394" y="62"/>
      <point x="387" y="72"/>
      <point x="387" y="91" type="curve" smooth="yes"/>
      <point x="387" y="135"/>
      <point x="423" y="276"/>
      <point x="461" y="377" type="curve" smooth="yes"/>
      <point x="518" y="530" type="line"/>
      <point x="435" y="530" type="line"/>
    </contour>
  </outline>
</glyph>
<glyph name="c" format="1">
  <advance width="441"/>
  <unicode hex="0063"/>
  <outline>
    <contour>
      <point x="347" y="651" type="move" name="top"/>
    </contour>
    <contour>
      <point x="148" y="0" type="move" name="bottom"/>
    </contour>
    <contour>
      <point x="338" y="181" type="line"/>
      <point x="298" y="105"/>
      <point x="236" y="49"/>
      <point x="189" y="49" type="curve" smooth="yes"/>
      <point x="145" y="49"/>
      <point x="119" y="88"/>
      <point x="119" y="152" type="curve" smooth="yes"/>
      <point x="119" y="311"/>
      <point x="221" y="493"/>
      <point x="310" y="493" type="curve" smooth="yes"/>
      <point x="326" y="493"/>
      <point x="334" y="488"/>
      <point x="334" y="479" type="curve" smooth="yes"/>
      <point x="334" y="470"/>
      <point x="326" y="460"/>
      <point x="326" y="443" type="curve" smooth="yes"/>
      <point x="326" y="415"/>
      <point x="348" y="393"/>
      <point x="378" y="393" type="curve" smooth="yes"/>
      <point x="408" y="393"/>
      <point x="430" y="416"/>
      <point x="430" y="449" type="curve" smooth="yes"/>
      <point x="430" y="501"/>
      <point x="383" y="540"/>
      <point x="320" y="540" type="curve" smooth="yes"/>
      <point x="179" y="540"/>
      <point x="14" y="331"/>
      <point x="14" y="153" type="curve" smooth="yes"/>
      <point x="14" y="55"/>
      <point x="71" y="-10"/>
      <point x="157" y="-10" type="curve" smooth="yes"/>
      <point x="241" y="-10"/>
      <point x="318" y="51"/>
      <point x="373" y="161" type="curve"/>
    </contour>
  </outline>
</glyph>
<glyph name="d" format="1">
  <advance width="598"/>
  <unicode hex="0064"/>
  <outline>
    <contour>
      <point x="136" y="0" type="move" name="bottom"/>
    </contour>
    <contour>
      <point x="410" y="486" type="line"/>
      <point x="387" y="523"/>
      <point x="370" y="540"/>
      <point x="324" y="540" type="curve" smooth="yes"/>
      <point x="186" y="540"/>
      <point x="11" y="320"/>
      <point x="11" y="146" type="curve" smooth="yes"/>
      <point x="11" y="53"/>
      <point x="64" y="-10"/>
      <point x="132" y="-10" type="curve" smooth="yes"/>
      <point x="197" y="-10"/>
      <point x="277" y="39"/>
      <point x="327" y="127" type="curve"/>
      <point x="335" y="125" type="line"/>
      <point x="331" y="110"/>
      <point x="328" y="93"/>
      <point x="328" y="79" type="curve" smooth="yes"/>
      <point x="328" y="22"/>
      <point x="355" y="-10"/>
      <point x="403" y="-10" type="curve" smooth="yes"/>
      <point x="471" y="-10"/>
      <point x="524" y="51"/>
      <point x="569" y="182" type="curve"/>
      <point x="531" y="191" type="line"/>
      <point x="505" y="111"/>
      <point x="467" y="57"/>
      <point x="438" y="57" type="curve" smooth="yes"/>
      <point x="424" y="57"/>
      <point x="413" y="68"/>
      <point x="413" y="98" type="curve" smooth="yes"/>
      <point x="413" y="141"/>
      <point x="428" y="216"/>
      <point x="485" y="425" type="curve" smooth="yes"/>
      <point x="596" y="830" type="line"/>
      <point x="403" y="830" type="line"/>
      <point x="392" y="790" type="line"/>
      <point x="461" y="790"/>
      <point x="484" y="783"/>
      <point x="484" y="763" type="curve" smooth="yes"/>
      <point x="484" y="752"/>
      <point x="478" y="728"/>
      <point x="468" y="692" type="curve" smooth="yes"/>
    </contour>
    <contour>
      <point x="331" y="487" type="curve" smooth="yes"/>
      <point x="365" y="487"/>
      <point x="381" y="462"/>
      <point x="381" y="421" type="curve" smooth="yes"/>
      <point x="381" y="294"/>
      <point x="265" y="55"/>
      <point x="174" y="55" type="curve" smooth="yes"/>
      <point x="134" y="55"/>
      <point x="108" y="86"/>
      <point x="108" y="134" type="curve" smooth="yes"/>
      <point x="108" y="274"/>
      <point x="227" y="487"/>
    </contour>
  </outline>
</glyph>
<glyph name="h" format="1">
  <advance width="574"/>
  <unicode hex="0068"/>
  <outline>
    <contour>
      <point x="418" y="651" type="move" name="top"/>
    </contour>
    <contour>
      <point x="182" y="0" type="move" name="bottom"/>
    </contour>
    <contour>
      <point x="356" y="311" type="curve" smooth="yes"/>
      <point x="298" y="144"/>
      <point x="286" y="98"/>
      <point x="286" y="53" type="curve" smooth="yes"/>
      <point x="286" y="9"/>
      <point x="301" y="-10"/>
      <point x="337" y="-10" type="curve" smooth="yes"/>
      <point x="404" y="-10"/>
      <point x="495" y="55"/>
      <point x="537" y="133" type="curve"/>
      <point x="509" y="154" type="line"/>
      <point x="469" y="99"/>
      <point x="427" y="65"/>
      <point x="400" y="65" type="curve" smooth="yes"/>
      <point x="387" y="65"/>
      <point x="381" y="73"/>
      <point x="381" y="88" type="curve" smooth="yes"/>
      <point x="381" y="100"/>
      <point x="384" y="108"/>
      <point x="436" y="253" type="curve" smooth="yes"/>
      <point x="464" y="329"/>
      <point x="477" y="387"/>
      <point x="477" y="431" type="curve" smooth="yes"/>
      <point x="477" y="501"/>
      <point x="442" y="540"/>
      <point x="379" y="540" type="curve" smooth="yes"/>
      <point x="318" y="540"/>
      <point x="260" y="504"/>
      <point x="217" y="442" type="curve"/>
      <point x="214" y="444" type="line"/>
      <point x="328" y="830" type="line"/>
      <point x="124" y="830" type="line"/>
      <point x="117" y="790" type="line"/>
      <point x="185" y="788"/>
      <point x="206" y="779"/>
      <point x="206" y="752" type="curve" smooth="yes"/>
      <point x="206" y="738"/>
      <point x="200" y="711"/>
      <point x="191" y="678" type="curve" smooth="yes"/>
      <point x="-7" y="0" type="line"/>
      <point x="77" y="0" type="line"/>
      <point x="100" y="69" type="line" smooth="yes"/>
      <point x="198" y="363"/>
      <point x="273" y="487"/>
      <point x="355" y="487" type="curve" smooth="yes"/>
      <point x="379" y="487"/>
      <point x="388" y="476"/>
      <point x="388" y="445" type="curve" smooth="yes"/>
      <point x="388" y="415"/>
      <point x="379" y="379"/>
    </contour>
  </outline>
</glyph>
<glyph name="p" format="1">
  <advance width="563"/>
  <unicode hex="0070"/>
  <outline>
    <contour>
      <point x="42" y="347" type="line"/>
      <point x="82" y="390"/>
      <point x="129" y="428"/>
      <point x="180" y="454" type="curve"/>
      <point x="-1" y="-164" type="line" smooth="yes"/>
      <point x="-11" y="-199"/>
      <point x="-33" y="-210"/>
      <point x="-89" y="-210" type="curve"/>
      <point x="-95" y="-250" type="line"/>
      <point x="188" y="-250" type="line"/>
      <point x="194" y="-210" type="line"/>
      <point x="125" y="-209"/>
      <point x="101" y="-197"/>
      <point x="101" y="-164" type="curve" smooth="yes"/>
      <point x="101" y="-154"/>
      <point x="103" y="-141"/>
      <point x="109" y="-121" type="curve" smooth="yes"/>
      <point x="146" y="18" type="line"/>
      <point x="344" y="44"/>
      <point x="525" y="188"/>
      <point x="525" y="364" type="curve" smooth="yes"/>
      <point x="525" y="474"/>
      <point x="459" y="539"/>
      <point x="346" y="539" type="curve" smooth="yes"/>
      <point x="325" y="539"/>
      <point x="304" y="536"/>
      <point x="283" y="532" type="curve"/>
      <point x="318" y="665" type="line"/>
      <point x="242" y="665" type="line"/>
      <point x="195" y="505" type="line"/>
      <point x="128" y="477"/>
      <point x="64" y="431"/>
      <point x="15" y="375" type="curve"/>
    </contour>
    <contour>
      <point x="320" y="490" type="curve" smooth="yes"/>
      <point x="381" y="490"/>
      <point x="421" y="438"/>
      <point x="421" y="358" type="curve" smooth="yes"/>
      <point x="421" y="214"/>
      <point x="291" y="87"/>
      <point x="157" y="61" type="curve"/>
      <point x="270" y="485" type="line"/>
      <point x="286" y="488"/>
      <point x="303" y="490"/>
    </contour>
  </outline>
</glyph>
<glyph name="t" format="1">
  <advance width="365"/>
  <unicode hex="0074"/>
  <outline>
    <contour>
      <point x="64" y="0" type="move" name="bottom"/>
    </contour>
    <contour>
      <point x="344" y="447" type="line"/>
      <point x="358" y="493" type="line"/>
      <point x="249" y="493" type="line"/>
      <point x="301" y="665" type="line"/>
      <point x="209" y="665" type="line"/>
      <point x="157" y="493" type="line"/>
      <point x="70" y="493" type="line"/>
      <point x="57" y="447" type="line"/>
      <point x="143" y="447" type="line"/>
      <point x="69" y="202" type="line" smooth="yes"/>
      <point x="46" y="124"/>
      <point x="38" y="81"/>
      <point x="38" y="55" type="curve" smooth="yes"/>
      <point x="38" y="9"/>
      <point x="58" y="-10"/>
      <point x="104" y="-10" type="curve" smooth="yes"/>
      <point x="169" y="-10"/>
      <point x="268" y="73"/>
      <point x="314" y="164" type="curve"/>
      <point x="285" y="181" type="line"/>
      <point x="267" y="151"/>
      <point x="201" y="67"/>
      <point x="154" y="67" type="curve" smooth="yes"/>
      <point x="139" y="67"/>
      <point x="134" y="78"/>
      <point x="134" y="90" type="curve" smooth="yes"/>
      <point x="135" y="109"/>
      <point x="141" y="136"/>
      <point x="152" y="172" type="curve" smooth="yes"/>
      <point x="235" y="447" type="line"/>
    </contour>
  </outline>
</glyph>
<glyph name="u" format="1">
  <advance width="593"/>
  <unicode hex="0075"/>
  <outline>
    <contour>
      <point x="372" y="651" type="move" name="top"/>
    </contour>
    <contour>
      <point x="125" y="0" type="move" name="bottom"/>
    </contour>
    <contour>
      <point x="169" y="62" type="curve" smooth="yes"/>
      <point x="157" y="62"/>
      <point x="148" y="72"/>
      <point x="148" y="100" type="curve" smooth="yes"/>
      <point x="148" y="142"/>
      <point x="168" y="194"/>
      <point x="194" y="259" type="curve" smooth="yes"/>
      <point x="235" y="361"/>
      <point x="264" y="435"/>
      <point x="264" y="482" type="curve" smooth="yes"/>
      <point x="264" y="519"/>
      <point x="246" y="540"/>
      <point x="214" y="540" type="curve" smooth="yes"/>
      <point x="149" y="540"/>
      <point x="61" y="457"/>
      <point x="21" y="379" type="curve"/>
      <point x="47" y="365" type="line"/>
      <point x="103" y="433"/>
      <point x="134" y="462"/>
      <point x="151" y="462" type="curve" smooth="yes"/>
      <point x="159" y="462"/>
      <point x="160" y="456"/>
      <point x="160" y="451" type="curve" smooth="yes"/>
      <point x="160" y="430"/>
      <point x="143" y="387"/>
      <point x="95" y="268" type="curve" smooth="yes"/>
      <point x="71" y="208"/>
      <point x="45" y="136"/>
      <point x="45" y="80" type="curve" smooth="yes"/>
      <point x="45" y="29"/>
      <point x="67" y="-10"/>
      <point x="129" y="-10" type="curve" smooth="yes"/>
      <point x="187" y="-10"/>
      <point x="252" y="26"/>
      <point x="323" y="153" type="curve"/>
      <point x="326" y="150" type="line"/>
      <point x="321" y="125"/>
      <point x="319" y="97"/>
      <point x="319" y="75" type="curve" smooth="yes"/>
      <point x="319" y="21"/>
      <point x="331" y="-10"/>
      <point x="372" y="-10" type="curve" smooth="yes"/>
      <point x="441" y="-10"/>
      <point x="521" y="78"/>
      <point x="556" y="166" type="curve"/>
      <point x="526" y="181" type="line"/>
      <point x="500" y="121"/>
      <point x="449" y="65"/>
      <point x="422" y="65" type="curve" smooth="yes"/>
      <point x="410" y="65"/>
      <point x="404" y="75"/>
      <point x="404" y="91" type="curve" smooth="yes"/>
      <point x="404" y="116"/>
      <point x="419" y="167"/>
      <point x="462" y="301" type="curve" smooth="yes"/>
      <point x="536" y="530" type="line"/>
      <point x="443" y="530" type="line"/>
      <point x="369" y="330" type="line" smooth="yes"/>
      <point x="318" y="192"/>
      <point x="212" y="62"/>
    </contour>
  </outline>
</glyph>
<glyph name="asciitilde" format="1">
  <advance width="533"/>
  <unicode hex="007E"/>
  <outline>
    <contour>
      <point x="104" y="249" type="line"/>
      <point x="113" y="278"/>
      <point x="125" y="289"/>
      <point x="146" y="289" type="curve" smooth="yes"/>
      <point x="167" y="289"/>
      <point x="189" y="286"/>
      <point x="253" y="266" type="curve" smooth="yes"/>
      <point x="310" y="248"/>
      <point x="335" y="241"/>
      <point x="359" y="241" type="curve" smooth="yes"/>
      <point x="383" y="241"/>
      <point x="403" y="252"/>
      <point x="424" y="277" type="curve" smooth="yes"/>
      <point x="441" y="302"/>
      <point x="453" y="332"/>
      <point x="456" y="359" type="curve"/>
      <point x="423" y="359" type="line"/>
      <point x="414" y="329"/>
      <point x="402" y="317"/>
      <point x="380" y="317" type="curve" smooth="yes"/>
      <point x="359" y="317"/>
      <point x="334" y="323"/>
      <point x="286" y="339" type="curve" smooth="yes"/>
      <point x="232" y="357"/>
      <point x="200" y="363"/>
      <point x="174" y="363" type="curve" smooth="yes"/>
      <point x="125" y="363"/>
      <point x="81" y="315"/>
      <point x="70" y="249" type="curve"/>
    </contour>
  </outline>
</glyph>
<glyph name="exclamdown" format="1">
  <advance width="318"/>
  <unicode hex="00A1"/>
  <outline>
    <contour>
      <point x="192" y="563" type="line"/>
      <point x="181" y="490"/>
      <point x="150" y="369"/>
      <point x="113" y="276" type="curve" smooth="yes"/>
      <point x="65" y="156"/>
      <point x="49" y="115"/>
      <point x="49" y="65" type="curve" smooth="yes"/>
      <point x="49" y="12"/>
      <point x="67" y="-10"/>
      <point x="104" y="-10" type="curve" smooth="yes"/>
      <point x="150" y="-10"/>
      <point x="170" y="23"/>
      <point x="179" y="108" type="curve" smooth="yes"/>
      <point x="226" y="563" type="line"/>
    </contour>
    <contour>
      <point x="237" y="780" type="curve"/>
      <point x="202" y="780"/>
      <point x="173" y="753"/>
      <point x="173" y="718" type="curve" smooth="yes"/>
      <point x="173" y="684"/>
      <point x="200" y="654"/>
      <point x="236" y="654" type="curve" smooth="yes"/>
      <point x="272" y="654"/>
      <point x="299" y="683"/>
      <point x="299" y="719" type="curve" smooth="yes"/>
      <point x="299" y="755"/>
      <point x="270" y="780"/>
    </contour>
  </outline>
</glyph>
<glyph name="currency" format="1">
  <advance width="697"/>
  <unicode hex="00A4"/>
  <outline>
    <contour>
      <point x="94" y="57" type="line"/>
      <point x="128" y="23" type="line"/>
      <point x="199" y="94" type="line"/>
      <point x="236" y="63"/>
      <point x="282" y="46"/>
      <point x="335" y="46" type="curve" smooth="yes"/>
      <point x="387" y="46"/>
      <point x="433" y="62"/>
      <point x="471" y="93" type="curve"/>
      <point x="542" y="22" type="line"/>
      <point x="577" y="57" type="line"/>
      <point x="506" y="128" type="line"/>
      <point x="536" y="165"/>
      <point x="553" y="211"/>
      <point x="553" y="263" type="curve" smooth="yes"/>
      <point x="553" y="315"/>
      <point x="536" y="361"/>
      <point x="505" y="399" type="curve"/>
      <point x="577" y="471" type="line"/>
      <point x="542" y="506" type="line"/>
      <point x="470" y="434" type="line"/>
      <point x="432" y="464"/>
      <point x="387" y="481"/>
      <point x="335" y="481" type="curve" smooth="yes"/>
      <point x="283" y="481"/>
      <point x="237" y="464"/>
      <point x="200" y="434" type="curve"/>
      <point x="128" y="506" type="line"/>
      <point x="93" y="471" type="line"/>
      <point x="165" y="399" type="line"/>
      <point x="134" y="361"/>
      <point x="118" y="315"/>
      <point x="118" y="263" type="curve" smooth="yes"/>
      <point x="118" y="211"/>
      <point x="135" y="165"/>
      <point x="165" y="128" type="curve"/>
    </contour>
    <contour>
      <point x="168" y="263" type="curve" smooth="yes"/>
      <point x="168" y="355"/>
      <point x="243" y="431"/>
      <point x="335" y="431" type="curve" smooth="yes"/>
      <point x="427" y="431"/>
      <point x="503" y="355"/>
      <point x="503" y="263" type="curve" smooth="yes"/>
      <point x="503" y="171"/>
      <point x="427" y="96"/>
      <point x="335" y="96" type="curve" smooth="yes"/>
      <point x="243" y="96"/>
      <point x="168" y="171"/>
    </contour>
  </outline>
</glyph>
<glyph name="yen" format="1">
  <advance width="765"/>
  <unicode hex="00A5"/>
  <outline>
    <contour>
      <point x="638" y="243" type="line"/>
      <point x="461" y="243" type="line"/>
      <point x="486" y="336" type="line"/>
      <point x="665" y="336" type="line"/>
      <point x="679" y="386" type="line"/>
      <point x="516" y="386" type="line"/>
      <point x="703" y="649" type="line" smooth="yes"/>
      <point x="750" y="716"/>
      <point x="763" y="730"/>
      <point x="817" y="730" type="curve"/>
      <point x="828" y="770" type="line"/>
      <point x="581" y="770" type="line"/>
      <point x="570" y="730" type="line"/>
      <point x="616" y="730"/>
      <point x="644" y="715"/>
      <point x="644" y="687" type="curve" smooth="yes"/>
      <point x="644" y="663"/>
      <point x="632" y="646"/>
      <point x="603" y="604" type="curve" smooth="yes"/>
      <point x="464" y="401" type="line"/>
      <point x="357" y="659" type="line" smooth="yes"/>
      <point x="351" y="673"/>
      <point x="349" y="686"/>
      <point x="349" y="695" type="curve" smooth="yes"/>
      <point x="349" y="721"/>
      <point x="370" y="730"/>
      <point x="420" y="730" type="curve"/>
      <point x="431" y="770" type="line"/>
      <point x="150" y="770" type="line"/>
      <point x="139" y="730" type="line"/>
      <point x="205" y="730"/>
      <point x="222" y="720"/>
      <point x="262" y="624" type="curve" smooth="yes"/>
      <point x="361" y="386" type="line"/>
      <point x="225" y="386" type="line"/>
      <point x="211" y="336" type="line"/>
      <point x="382" y="336" type="line"/>
      <point x="358" y="243" type="line"/>
      <point x="184" y="243" type="line"/>
      <point x="170" y="193" type="line"/>
      <point x="345" y="193" type="line"/>
      <point x="336" y="158" type="line" smooth="yes"/>
      <point x="310" y="59"/>
      <point x="277" y="40"/>
      <point x="191" y="40" type="curve"/>
      <point x="180" y="0" type="line"/>
      <point x="519" y="0" type="line"/>
      <point x="531" y="40" type="line"/>
      <point x="460" y="40"/>
      <point x="430" y="53"/>
      <point x="430" y="98" type="curve" smooth="yes"/>
      <point x="430" y="116"/>
      <point x="434" y="139"/>
      <point x="442" y="168" type="curve" smooth="yes"/>
      <point x="448" y="193" type="line"/>
      <point x="624" y="193" type="line"/>
    </contour>
  </outline>
</glyph>
<glyph name="logicalnot" format="1">
  <advance width="676"/>
  <unicode hex="00AC"/>
  <outline>
    <contour>
      <point x="504" y="110" type="line"/>
      <point x="554" y="110" type="line"/>
      <point x="554" y="363" type="line"/>
      <point x="96" y="363" type="line"/>
      <point x="96" y="313" type="line"/>
      <point x="504" y="313" type="line"/>
    </contour>
  </outline>
</glyph>
<glyph name="registered" format="1">
  <advance width="918"/>
  <unicode hex="00AE"/>
  <outline>
    <contour>
      <point x="865" y="386" type="curve" smooth="yes"/>
      <point x="865" y="605"/>
      <point x="691" y="780"/>
      <point x="475" y="780" type="curve" smooth="yes"/>
      <point x="262" y="780"/>
      <point x="91" y="602"/>
      <point x="91" y="385" type="curve" smooth="yes"/>
      <point x="91" y="168"/>
      <point x="263" y="-10"/>
      <point x="476" y="-10" type="curve" smooth="yes"/>
      <point x="691" y="-10"/>
      <point x="865" y="166"/>
    </contour>
    <contour>
      <point x="817" y="386" type="curve" smooth="yes"/>
      <point x="817" y="194"/>
      <point x="664" y="38"/>
      <point x="476" y="38" type="curve" smooth="yes"/>
      <point x="288" y="38"/>
      <point x="139" y="194"/>
      <point x="139" y="385" type="curve" smooth="yes"/>
      <point x="139" y="575"/>
      <point x="287" y="732"/>
      <point x="475" y="732" type="curve" smooth="yes"/>
      <point x="664" y="732"/>
      <point x="817" y="579"/>
    </contour>
    <contour>
      <point x="626" y="507" type="curve" smooth="yes"/>
      <point x="626" y="574"/>
      <point x="565" y="615"/>
      <point x="458" y="615" type="curve" smooth="yes"/>
      <point x="283" y="615" type="line"/>
      <point x="283" y="590" type="line"/>
      <point x="326" y="588"/>
      <point x="333" y="578"/>
      <point x="333" y="527" type="curve" smooth="yes"/>
      <point x="333" y="268" type="line" smooth="yes"/>
      <point x="333" y="217"/>
      <point x="325" y="207"/>
      <point x="277" y="205" type="curve"/>
      <point x="277" y="183" type="line"/>
      <point x="475" y="183" type="line"/>
      <point x="475" y="205" type="line"/>
      <point x="411" y="205"/>
      <point x="403" y="217"/>
      <point x="403" y="271" type="curve" smooth="yes"/>
      <point x="403" y="383" type="line"/>
      <point x="435" y="383"/>
      <point x="445" y="379"/>
      <point x="463" y="354" type="curve" smooth="yes"/>
      <point x="601" y="183" type="line"/>
      <point x="709" y="183" type="line"/>
      <point x="709" y="205" type="line"/>
      <point x="679" y="210"/>
      <point x="661" y="220"/>
      <point x="642" y="243" type="curve" smooth="yes"/>
      <point x="518" y="393" type="line"/>
      <point x="593" y="405"/>
      <point x="626" y="447"/>
    </contour>
    <contour>
      <point x="403" y="576" type="line" smooth="yes"/>
      <point x="403" y="581"/>
      <point x="405" y="585"/>
      <point x="412" y="585" type="curve" smooth="yes"/>
      <point x="458" y="585" type="line" smooth="yes"/>
      <point x="517" y="585"/>
      <point x="543" y="563"/>
      <point x="543" y="504" type="curve" smooth="yes"/>
      <point x="543" y="442"/>
      <point x="510" y="416"/>
      <point x="443" y="416" type="curve" smooth="yes"/>
      <point x="403" y="416" type="line"/>
    </contour>
  </outline>
</glyph>
<glyph name="plusminus" format="1">
  <advance width="659"/>
  <unicode hex="00B1"/>
  <outline>
    <contour>
      <point x="559" y="493" type="line"/>
      <point x="91" y="493" type="line"/>
      <point x="91" y="443" type="line"/>
      <point x="559" y="443" type="line"/>
    </contour>
    <contour>
      <point x="351" y="234" type="line"/>
      <point x="351" y="702" type="line"/>
      <point x="299" y="702" type="line"/>
      <point x="299" y="234" type="line"/>
    </contour>
    <contour>
      <point x="559" y="145" type="line"/>
      <point x="91" y="145" type="line"/>
      <point x="91" y="95" type="line"/>
      <point x="559" y="95" type="line"/>
    </contour>
  </outline>
</glyph>
<glyph name="mu" format="1">
  <advance width="685"/>
  <unicode hex="00B5"/>
  <outline>
    <contour>
      <point x="143" y="268" type="curve" smooth="yes"/>
      <point x="175" y="367"/>
      <point x="184" y="403"/>
      <point x="184" y="428" type="curve" smooth="yes"/>
      <point x="184" y="442"/>
      <point x="180" y="449"/>
      <point x="173" y="449" type="curve" smooth="yes"/>
      <point x="157" y="449"/>
      <point x="125" y="420"/>
      <point x="80" y="365" type="curve"/>
      <point x="54" y="379" type="line"/>
      <point x="97" y="464"/>
      <point x="188" y="540"/>
      <point x="247" y="540" type="curve" smooth="yes"/>
      <point x="278" y="540"/>
      <point x="297" y="519"/>
      <point x="297" y="485" type="curve" smooth="yes"/>
      <point x="297" y="454"/>
      <point x="292" y="437"/>
      <point x="231" y="259" type="curve" smooth="yes"/>
      <point x="209" y="194"/>
      <point x="196" y="137"/>
      <point x="196" y="104" type="curve" smooth="yes"/>
      <point x="196" y="75"/>
      <point x="205" y="62"/>
      <point x="223" y="62" type="curve" smooth="yes"/>
      <point x="274" y="62"/>
      <point x="364" y="186"/>
      <point x="417" y="330" type="curve" smooth="yes"/>
      <point x="491" y="530" type="line"/>
      <point x="584" y="530" type="line"/>
      <point x="510" y="301" type="line" smooth="yes"/>
      <point x="466" y="165"/>
      <point x="452" y="115"/>
      <point x="452" y="91" type="curve" smooth="yes"/>
      <point x="452" y="74"/>
      <point x="458" y="65"/>
      <point x="469" y="65" type="curve" smooth="yes"/>
      <point x="497" y="65"/>
      <point x="548" y="121"/>
      <point x="574" y="181" type="curve"/>
      <point x="604" y="166" type="line"/>
      <point x="564" y="67"/>
      <point x="483" y="-10"/>
      <point x="419" y="-10" type="curve" smooth="yes"/>
      <point x="382" y="-10"/>
      <point x="367" y="16"/>
      <point x="367" y="81" type="curve" smooth="yes"/>
      <point x="367" y="101"/>
      <point x="369" y="119"/>
      <point x="372" y="138" type="curve"/>
      <point x="369" y="141" type="line"/>
      <point x="326" y="44"/>
      <point x="272" y="-10"/>
      <point x="218" y="-10" type="curve" smooth="yes"/>
      <point x="187" y="-10"/>
      <point x="166" y="2"/>
      <point x="155" y="26" type="curve"/>
      <point x="152" y="25" type="line"/>
      <point x="118" y="-181" type="line" smooth="yes"/>
      <point x="109" y="-235"/>
      <point x="89" y="-260"/>
      <point x="51" y="-260" type="curve" smooth="yes"/>
      <point x="20" y="-260"/>
      <point x="6" y="-245"/>
      <point x="6" y="-210" type="curve" smooth="yes"/>
      <point x="6" y="-198"/>
      <point x="8" y="-185"/>
      <point x="12" y="-169" type="curve" smooth="yes"/>
      <point x="28" y="-104"/>
      <point x="95" y="119"/>
    </contour>
  </outline>
</glyph>
<glyph name="periodcentered" format="1">
  <advance width="275"/>
  <unicode hex="00B7"/>
  <outline>
    <contour>
      <point x="61" y="274" type="curve" smooth="yes"/>
      <point x="61" y="238"/>
      <point x="90" y="209"/>
      <point x="126" y="209" type="curve" smooth="yes"/>
      <point x="163" y="209"/>
      <point x="192" y="238"/>
      <point x="192" y="274" type="curve" smooth="yes"/>
      <point x="192" y="311"/>
      <point x="163" y="340"/>
      <point x="126" y="340" type="curve" smooth="yes"/>
      <point x="90" y="340"/>
      <point x="61" y="311"/>
    </contour>
  </outline>
</glyph>
<glyph name="cedilla" format="1">
  <advance width="232"/>
  <unicode hex="00B8"/>
  <outline>
    <contour>
      <point x="122" y="0" type="move" name="_bottom"/>
    </contour>
    <contour>
      <point x="190" y="12" type="line"/>
      <point x="137" y="12" type="line"/>
      <point x="52" y="-112" type="line"/>
      <point x="53" y="-115" type="line"/>
      <point x="59" y="-114"/>
      <point x="75" y="-113"/>
      <point x="88" y="-113" type="curve" smooth="yes"/>
      <point x="131" y="-113"/>
      <point x="155" y="-127"/>
      <point x="155" y="-154" type="curve" smooth="yes"/>
      <point x="155" y="-190"/>
      <point x="122" y="-217"/>
      <point x="90" y="-217" type="curve" smooth="yes"/>
      <point x="43" y="-217"/>
      <point x="63" y="-148"/>
      <point x="30" y="-148" type="curve" smooth="yes"/>
      <point x="7" y="-148"/>
      <point x="-11" y="-169"/>
      <point x="-11" y="-197" type="curve" smooth="yes"/>
      <point x="-11" y="-233"/>
      <point x="29" y="-260"/>
      <point x="88" y="-260" type="curve" smooth="yes"/>
      <point x="163" y="-260"/>
      <point x="240" y="-204"/>
      <point x="240" y="-135" type="curve" smooth="yes"/>
      <point x="240" y="-94"/>
      <point x="203" y="-72"/>
      <point x="136" y="-72" type="curve"/>
    </contour>
  </outline>
</glyph>
<glyph name="AE" format="1">
  <advance width="1071"/>
  <unicode hex="00C6"/>
  <outline>
    <contour>
      <point x="928" y="0" type="line"/>
      <point x="1006" y="211" type="line"/>
      <point x="959" y="211" type="line"/>
      <point x="904" y="87"/>
      <point x="839" y="43"/>
      <point x="686" y="43" type="curve" smooth="yes"/>
      <point x="592" y="43"/>
      <point x="562" y="57"/>
      <point x="562" y="89" type="curve" smooth="yes"/>
      <point x="562" y="105"/>
      <point x="566" y="131"/>
      <point x="574" y="166" type="curve" smooth="yes"/>
      <point x="623" y="385" type="line"/>
      <point x="685" y="385" type="line" smooth="yes"/>
      <point x="746" y="385"/>
      <point x="765" y="358"/>
      <point x="765" y="299" type="curve" smooth="yes"/>
      <point x="765" y="284"/>
      <point x="764" y="267"/>
      <point x="762" y="247" type="curve"/>
      <point x="802" y="247" type="line"/>
      <point x="862" y="543" type="line"/>
      <point x="825" y="543" type="line"/>
      <point x="783" y="451"/>
      <point x="757" y="429"/>
      <point x="686" y="429" type="curve" smooth="yes"/>
      <point x="633" y="429" type="line"/>
      <point x="701" y="726" type="line"/>
      <point x="831" y="726" type="line" smooth="yes"/>
      <point x="915" y="726"/>
      <point x="965" y="695"/>
      <point x="999" y="568" type="curve"/>
      <point x="1037" y="568" type="line"/>
      <point x="1037" y="770" type="line"/>
      <point x="461" y="770" type="line"/>
      <point x="450" y="730" type="line"/>
      <point x="527" y="730"/>
      <point x="558" y="723"/>
      <point x="558" y="706" type="curve" smooth="yes"/>
      <point x="558" y="698"/>
      <point x="552" y="689"/>
      <point x="542" y="677" type="curve" smooth="yes"/>
      <point x="168" y="231" type="line" smooth="yes"/>
      <point x="45" y="85"/>
      <point x="-12" y="40"/>
      <point x="-75" y="40" type="curve"/>
      <point x="-85" y="0" type="line"/>
      <point x="174" y="0" type="line"/>
      <point x="184" y="40" type="line"/>
      <point x="129" y="40"/>
      <point x="109" y="49"/>
      <point x="109" y="74" type="curve" smooth="yes"/>
      <point x="109" y="90"/>
      <point x="118" y="110"/>
      <point x="227" y="224" type="curve" smooth="yes"/>
      <point x="290" y="290" type="line"/>
      <point x="505" y="290" type="line"/>
      <point x="478" y="167" type="line" smooth="yes"/>
      <point x="454" y="58"/>
      <point x="437" y="40"/>
      <point x="359" y="40" type="curve"/>
      <point x="349" y="0" type="line"/>
    </contour>
    <contour>
      <point x="333" y="340" type="line"/>
      <point x="592" y="650" type="line"/>
      <point x="596" y="650" type="line"/>
      <point x="514" y="340" type="line"/>
    </contour>
  </outline>
</glyph>
<glyph name="eth" format="1">
  <advance width="581"/>
  <unicode hex="00F0"/>
  <outline>
    <contour>
      <point x="301" y="449" type="curve" smooth="yes"/>
      <point x="364" y="449"/>
      <point x="399" y="405"/>
      <point x="399" y="330" type="curve" smooth="yes"/>
      <point x="399" y="227"/>
      <point x="339" y="35"/>
      <point x="216" y="35" type="curve" smooth="yes"/>
      <point x="167" y="35"/>
      <point x="141" y="77"/>
      <point x="141" y="152" type="curve" smooth="yes"/>
      <point x="141" y="260"/>
      <point x="195" y="449"/>
    </contour>
    <contour>
      <point x="225" y="746" type="line"/>
      <point x="287" y="722"/>
      <point x="321" y="703"/>
      <point x="345" y="680" type="curve"/>
      <point x="206" y="609" type="line"/>
      <point x="225" y="571" type="line"/>
      <point x="374" y="646" type="line"/>
      <point x="418" y="591"/>
      <point x="437" y="520"/>
      <point x="438" y="414" type="curve"/>
      <point x="434" y="412" type="line"/>
      <point x="420" y="468"/>
      <point x="374" y="498"/>
      <point x="303" y="498" type="curve" smooth="yes"/>
      <point x="162" y="498"/>
      <point x="21" y="349"/>
      <point x="21" y="180" type="curve" smooth="yes"/>
      <point x="21" y="68"/>
      <point x="93" y="-10"/>
      <point x="204" y="-10" type="curve" smooth="yes"/>
      <point x="379" y="-10"/>
      <point x="545" y="184"/>
      <point x="545" y="430" type="curve" smooth="yes"/>
      <point x="545" y="534"/>
      <point x="513" y="621"/>
      <point x="443" y="681" type="curve"/>
      <point x="577" y="749" type="line"/>
      <point x="557" y="787" type="line"/>
      <point x="408" y="712" type="line"/>
      <point x="368" y="740"/>
      <point x="310" y="762"/>
      <point x="252" y="780" type="curve"/>
    </contour>
  </outline>
</glyph>
<glyph name="divide" format="1">
  <advance width="602"/>
  <unicode hex="00F7"/>
  <outline>
    <contour>
      <point x="243" y="162" type="curve" smooth="yes"/>
      <point x="243" y="126"/>
      <point x="272" y="97"/>
      <point x="308" y="97" type="curve" smooth="yes"/>
      <point x="345" y="97"/>
      <point x="374" y="126"/>
      <point x="374" y="162" type="curve" smooth="yes"/>
      <point x="374" y="199"/>
      <point x="345" y="228"/>
      <point x="308" y="228" type="curve" smooth="yes"/>
      <point x="272" y="228"/>
      <point x="243" y="199"/>
    </contour>
    <contour>
      <point x="243" y="512" type="curve" smooth="yes"/>
      <point x="243" y="476"/>
      <point x="272" y="447"/>
      <point x="308" y="447" type="curve" smooth="yes"/>
      <point x="345" y="447"/>
      <point x="374" y="476"/>
      <point x="374" y="512" type="curve" smooth="yes"/>
      <point x="374" y="549"/>
      <point x="345" y="578"/>
      <point x="308" y="578" type="curve" smooth="yes"/>
      <point x="272" y="578"/>
      <point x="243" y="549"/>
    </contour>
    <contour>
      <point x="540" y="363" type="line"/>
      <point x="72" y="363" type="line"/>
      <point x="72" y="313" type="line"/>
      <point x="540" y="313" type="line"/>
    </contour>
  </outline>
</glyph>
<glyph name="thorn" format="1">
  <advance width="540"/>
  <unicode hex="00FE"/>
  <outline>
    <contour>
      <point x="164" y="-10" type="curve" smooth="yes"/>
      <point x="326" y="-10"/>
      <point x="505" y="207"/>
      <point x="505" y="397" type="curve" smooth="yes"/>
      <point x="505" y="484"/>
      <point x="459" y="539"/>
      <point x="378" y="539" type="curve" smooth="yes"/>
      <point x="313" y="539"/>
      <point x="252" y="503"/>
      <point x="213" y="442" type="curve"/>
      <point x="210" y="444" type="line"/>
      <point x="337" y="829" type="line"/>
      <point x="145" y="820" type="line"/>
      <point x="137" y="790" type="line"/>
      <point x="189" y="790"/>
      <point x="213" y="779"/>
      <point x="213" y="755" type="curve" smooth="yes"/>
      <point x="213" y="743"/>
      <point x="205" y="715"/>
      <point x="198" y="691" type="curve" smooth="yes"/>
      <point x="-59" y="-164" type="line" smooth="yes"/>
      <point x="-69" y="-199"/>
      <point x="-91" y="-210"/>
      <point x="-147" y="-210" type="curve"/>
      <point x="-153" y="-250" type="line"/>
      <point x="130" y="-250" type="line"/>
      <point x="136" y="-210" type="line"/>
      <point x="67" y="-209"/>
      <point x="43" y="-197"/>
      <point x="43" y="-164" type="curve" smooth="yes"/>
      <point x="43" y="-154"/>
      <point x="46" y="-141"/>
      <point x="51" y="-121" type="curve" smooth="yes"/>
      <point x="88" y="24" type="line"/>
      <point x="91" y="25" type="line"/>
      <point x="109" y="1"/>
      <point x="133" y="-10"/>
    </contour>
    <contour>
      <point x="180" y="41" type="curve" smooth="yes"/>
      <point x="146" y="41"/>
      <point x="129" y="69"/>
      <point x="129" y="123" type="curve" smooth="yes"/>
      <point x="129" y="270"/>
      <point x="261" y="486"/>
      <point x="351" y="486" type="curve" smooth="yes"/>
      <point x="382" y="486"/>
      <point x="406" y="451"/>
      <point x="406" y="405" type="curve" smooth="yes"/>
      <point x="406" y="256"/>
      <point x="273" y="41"/>
    </contour>
  </outline>
</glyph>
<glyph name="dcroat" format="1">
  <advance width="598"/>
  <unicode hex="0111"/>
  <outline>
    <contour>
      <point x="619" y="639" type="line"/>
      <point x="634" y="692" type="line"/>
      <point x="355" y="692" type="line"/>
      <point x="340" y="639" type="line"/>
    </contour>
    <component base="d"/>
  </outline>
</glyph>
<glyph name="OE" format="1">
  <advance width="1158"/>
  <unicode hex="0152"/>
  <outline>
    <contour>
      <point x="585" y="770" type="line" smooth="yes"/>
      <point x="329" y="770"/>
      <point x="68" y="555"/>
      <point x="68" y="299" type="curve" smooth="yes"/>
      <point x="68" y="127"/>
      <point x="198" y="0"/>
      <point x="401" y="0" type="curve" smooth="yes"/>
      <point x="1015" y="0" type="line"/>
      <point x="1093" y="211" type="line"/>
      <point x="1046" y="211" type="line"/>
      <point x="993" y="93"/>
      <point x="934" y="43"/>
      <point x="793" y="43" type="curve" smooth="yes"/>
      <point x="691" y="43"/>
      <point x="648" y="60"/>
      <point x="647" y="113" type="curve" smooth="yes"/>
      <point x="647" y="125"/>
      <point x="648" y="140"/>
      <point x="652" y="157" type="curve" smooth="yes"/>
      <point x="707" y="387" type="line"/>
      <point x="828" y="386"/>
      <point x="851" y="371"/>
      <point x="851" y="302" type="curve" smooth="yes"/>
      <point x="851" y="286"/>
      <point x="850" y="268"/>
      <point x="849" y="247" type="curve"/>
      <point x="889" y="247" type="line"/>
      <point x="949" y="542" type="line"/>
      <point x="911" y="542" type="line"/>
      <point x="873" y="442"/>
      <point x="839" y="427"/>
      <point x="716" y="427" type="curve"/>
      <point x="784" y="710" type="line"/>
      <point x="784" y="720"/>
      <point x="792" y="727"/>
      <point x="803" y="727" type="curve" smooth="yes"/>
      <point x="884" y="727" type="line" smooth="yes"/>
      <point x="1008" y="727"/>
      <point x="1050" y="700"/>
      <point x="1086" y="568" type="curve"/>
      <point x="1124" y="568" type="line"/>
      <point x="1124" y="770" type="line"/>
    </contour>
    <contour>
      <point x="575" y="730" type="curve" smooth="yes"/>
      <point x="639" y="730"/>
      <point x="665" y="719"/>
      <point x="665" y="674" type="curve" smooth="yes"/>
      <point x="665" y="660"/>
      <point x="661" y="641"/>
      <point x="657" y="618" type="curve"/>
      <point x="546" y="152" type="line" smooth="yes"/>
      <point x="524" y="58"/>
      <point x="509" y="42"/>
      <point x="415" y="42" type="curve" smooth="yes"/>
      <point x="275" y="42"/>
      <point x="192" y="125"/>
      <point x="192" y="263" type="curve" smooth="yes"/>
      <point x="192" y="298"/>
      <point x="197" y="334"/>
      <point x="207" y="376" type="curve" smooth="yes"/>
      <point x="257" y="595"/>
      <point x="398" y="730"/>
    </contour>
  </outline>
</glyph>
<glyph name="tbar" format="1">
  <advance width="366"/>
  <unicode hex="0167"/>
  <outline>
    <contour>
      <point x="313" y="328" type="line"/>
      <point x="328" y="381" type="line"/>
      <point x="49" y="381" type="line"/>
      <point x="34" y="328" type="line"/>
    </contour>
    <component base="t" xOffset="1"/>
  </outline>
</glyph>
<glyph name="schwa" format="1">
  <advance width="457"/>
  <unicode hex="0259"/>
  <outline>
    <contour>
      <point x="344" y="651" type="move" name="top"/>
    </contour>
    <contour>
      <point x="136" y="0" type="move" name="bottom"/>
    </contour>
    <contour>
      <point x="92" y="376" type="line"/>
      <point x="137" y="444"/>
      <point x="193" y="485"/>
      <point x="242" y="485" type="curve" smooth="yes"/>
      <point x="292" y="485"/>
      <point x="319" y="447"/>
      <point x="319" y="376" type="curve" smooth="yes"/>
      <point x="319" y="358"/>
      <point x="318" y="340"/>
      <point x="315" y="321" type="curve"/>
      <point x="137" y="281"/>
      <point x="-12" y="170"/>
      <point x="-12" y="77" type="curve" smooth="yes"/>
      <point x="-12" y="26"/>
      <point x="33" y="-10"/>
      <point x="97" y="-10" type="curve" smooth="yes"/>
      <point x="249" y="-10"/>
      <point x="417" y="193"/>
      <point x="417" y="377" type="curve" smooth="yes"/>
      <point x="417" y="480"/>
      <point x="365" y="540"/>
      <point x="274" y="540" type="curve" smooth="yes"/>
      <point x="191" y="540"/>
      <point x="117" y="491"/>
      <point x="60" y="397" type="curve"/>
    </contour>
    <contour>
      <point x="117" y="37" type="curve"/>
      <point x="94" y="37"/>
      <point x="82" y="51"/>
      <point x="82" y="79" type="curve" smooth="yes"/>
      <point x="82" y="159"/>
      <point x="177" y="241"/>
      <point x="305" y="276" type="curve"/>
      <point x="271" y="154"/>
      <point x="187" y="37"/>
    </contour>
  </outline>
</glyph>
<glyph name="apostrophe" format="1">
  <advance width="194"/>
  <unicode hex="02BC"/>
  <outline>
    <contour>
      <point x="82" y="611" type="line"/>
      <point x="107" y="667"/>
      <point x="153" y="757"/>
      <point x="159" y="780" type="curve" smooth="yes"/>
      <point x="160" y="785"/>
      <point x="161" y="791"/>
      <point x="161" y="795" type="curve" smooth="yes"/>
      <point x="161" y="816"/>
      <point x="148" y="830"/>
      <point x="126" y="830" type="curve" smooth="yes"/>
      <point x="50" y="830"/>
      <point x="65" y="751"/>
      <point x="53" y="611" type="curve"/>
    </contour>
  </outline>
</glyph>
<glyph name="guilsinglright" format="1">
  <advance width="307"/>
  <unicode hex="203A"/>
  <outline>
    <contour>
      <point x="250" y="262" type="line"/>
      <point x="123" y="421" type="line"/>
      <point x="97" y="400" type="line"/>
      <point x="159" y="262" type="line"/>
      <point x="24" y="124" type="line"/>
      <point x="38" y="104" type="line"/>
    </contour>
  </outline>
</glyph>
<glyph name="eightsuperior" format="1">
  <advance width="296"/>
  <unicode hex="2078"/>
  <outline>
    <contour>
      <point x="266" y="640" type="curve"/>
      <point x="307" y="647"/>
      <point x="339" y="680"/>
      <point x="339" y="716" type="curve" smooth="yes"/>
      <point x="339" y="752"/>
      <point x="301" y="780"/>
      <point x="252" y="780" type="curve" smooth="yes"/>
      <point x="196" y="780"/>
      <point x="148" y="744"/>
      <point x="148" y="699" type="curve" smooth="yes"/>
      <point x="148" y="673"/>
      <point x="164" y="648"/>
      <point x="191" y="630" type="curve"/>
      <point x="135" y="614"/>
      <point x="107" y="584"/>
      <point x="107" y="541" type="curve" smooth="yes"/>
      <point x="107" y="493"/>
      <point x="143" y="464"/>
      <point x="201" y="464" type="curve" smooth="yes"/>
      <point x="269" y="464"/>
      <point x="317" y="503"/>
      <point x="317" y="557" type="curve" smooth="yes"/>
      <point x="317" y="589"/>
      <point x="302" y="618"/>
    </contour>
    <contour>
      <point x="232" y="608" type="line" smooth="yes"/>
      <point x="258" y="592"/>
      <point x="271" y="571"/>
      <point x="271" y="545" type="curve" smooth="yes"/>
      <point x="271" y="513"/>
      <point x="243" y="490"/>
      <point x="204" y="490" type="curve" smooth="yes"/>
      <point x="170" y="490"/>
      <point x="153" y="509"/>
      <point x="153" y="543" type="curve" smooth="yes"/>
      <point x="153" y="579"/>
      <point x="172" y="605"/>
      <point x="211" y="621" type="curve"/>
    </contour>
    <contour>
      <point x="230" y="658" type="line" smooth="yes"/>
      <point x="207" y="674"/>
      <point x="195" y="694"/>
      <point x="195" y="712" type="curve" smooth="yes"/>
      <point x="195" y="737"/>
      <point x="219" y="754"/>
      <point x="249" y="754" type="curve" smooth="yes"/>
      <point x="279" y="754"/>
      <point x="296" y="735"/>
      <point x="296" y="709" type="curve" smooth="yes"/>
      <point x="296" y="683"/>
      <point x="278" y="664"/>
      <point x="246" y="648" type="curve"/>
    </contour>
  </outline>
</glyph>
<glyph name="threeinferior" format="1">
  <advance width="287"/>
  <unicode hex="2083"/>
  <outline>
    <contour>
      <point x="132" y="82" type="curve" smooth="yes"/>
      <point x="132" y="117"/>
      <point x="113" y="144"/>
      <point x="87" y="144" type="curve" smooth="yes"/>
      <point x="78" y="144"/>
      <point x="64" y="141"/>
      <point x="56" y="141" type="curve" smooth="yes"/>
      <point x="47" y="141"/>
      <point x="43" y="144"/>
      <point x="43" y="149" type="curve" smooth="yes"/>
      <point x="43" y="185"/>
      <point x="150" y="148"/>
      <point x="150" y="236" type="curve" smooth="yes"/>
      <point x="150" y="267"/>
      <point x="138" y="281"/>
      <point x="114" y="281" type="curve" smooth="yes"/>
      <point x="86" y="281"/>
      <point x="66" y="265"/>
      <point x="66" y="244" type="curve" smooth="yes"/>
      <point x="66" y="228"/>
      <point x="75" y="218"/>
      <point x="91" y="218" type="curve"/>
      <point x="87" y="209"/>
      <point x="76" y="203"/>
      <point x="64" y="203" type="curve" smooth="yes"/>
      <point x="40" y="203"/>
      <point x="25" y="218"/>
      <point x="25" y="240" type="curve" smooth="yes"/>
      <point x="25" y="278"/>
      <point x="64" y="306"/>
      <point x="117" y="306" type="curve" smooth="yes"/>
      <point x="167" y="306"/>
      <point x="199" y="282"/>
      <point x="199" y="244" type="curve" smooth="yes"/>
      <point x="199" y="207"/>
      <point x="167" y="171"/>
      <point x="126" y="162" type="curve"/>
      <point x="126" y="158" type="line"/>
      <point x="163" y="149"/>
      <point x="184" y="122"/>
      <point x="184" y="88" type="curve" smooth="yes"/>
      <point x="184" y="34"/>
      <point x="129" y="-10"/>
      <point x="60" y="-10" type="curve" smooth="yes"/>
      <point x="8" y="-10"/>
      <point x="-28" y="15"/>
      <point x="-28" y="52" type="curve" smooth="yes"/>
      <point x="-28" y="82"/>
      <point x="-3" y="108"/>
      <point x="26" y="108" type="curve" smooth="yes"/>
      <point x="40" y="108"/>
      <point x="52" y="100"/>
      <point x="54" y="90" type="curve"/>
      <point x="34" y="90"/>
      <point x="17" y="71"/>
      <point x="17" y="48" type="curve" smooth="yes"/>
      <point x="17" y="27"/>
      <point x="34" y="16"/>
      <point x="63" y="16" type="curve" smooth="yes"/>
      <point x="104" y="16"/>
      <point x="132" y="42"/>
    </contour>
  </outline>
</glyph>
<glyph name="eightinferior" format="1">
  <advance width="295"/>
  <unicode hex="2088"/>
  <outline>
    <contour>
      <point x="139" y="166" type="curve"/>
      <point x="180" y="173"/>
      <point x="212" y="206"/>
      <point x="212" y="242" type="curve" smooth="yes"/>
      <point x="212" y="278"/>
      <point x="174" y="306"/>
      <point x="125" y="306" type="curve" smooth="yes"/>
      <point x="69" y="306"/>
      <point x="21" y="270"/>
      <point x="21" y="225" type="curve" smooth="yes"/>
      <point x="21" y="199"/>
      <point x="37" y="174"/>
      <point x="64" y="156" type="curve"/>
      <point x="8" y="140"/>
      <point x="-20" y="110"/>
      <point x="-20" y="67" type="curve" smooth="yes"/>
      <point x="-20" y="19"/>
      <point x="16" y="-10"/>
      <point x="74" y="-10" type="curve" smooth="yes"/>
      <point x="142" y="-10"/>
      <point x="190" y="29"/>
      <point x="190" y="83" type="curve" smooth="yes"/>
      <point x="190" y="115"/>
      <point x="175" y="144"/>
    </contour>
    <contour>
      <point x="105" y="134" type="line"/>
      <point x="130" y="116"/>
      <point x="144" y="97"/>
      <point x="144" y="71" type="curve" smooth="yes"/>
      <point x="144" y="39"/>
      <point x="116" y="16"/>
      <point x="77" y="16" type="curve" smooth="yes"/>
      <point x="43" y="16"/>
      <point x="26" y="35"/>
      <point x="26" y="69" type="curve" smooth="yes"/>
      <point x="26" y="105"/>
      <point x="45" y="131"/>
      <point x="84" y="147" type="curve"/>
    </contour>
    <contour>
      <point x="103" y="184" type="line" smooth="yes"/>
      <point x="80" y="200"/>
      <point x="68" y="220"/>
      <point x="68" y="238" type="curve" smooth="yes"/>
      <point x="68" y="263"/>
      <point x="92" y="280"/>
      <point x="122" y="280" type="curve" smooth="yes"/>
      <point x="152" y="280"/>
      <point x="169" y="261"/>
      <point x="169" y="235" type="curve" smooth="yes"/>
      <point x="169" y="209"/>
      <point x="151" y="190"/>
      <point x="119" y="174" type="curve"/>
    </contour>
  </outline>
</glyph>
<glyph name="nineinferior" format="1">
  <advance width="293"/>
  <unicode hex="2089"/>
  <outline>
    <contour>
      <point x="10" y="190" type="curve" smooth="yes"/>
      <point x="10" y="140"/>
      <point x="46" y="107"/>
      <point x="99" y="107" type="curve" smooth="yes"/>
      <point x="118" y="107"/>
      <point x="135" y="112"/>
      <point x="152" y="123" type="curve"/>
      <point x="155" y="122" type="line"/>
      <point x="137" y="58"/>
      <point x="94" y="13"/>
      <point x="51" y="13" type="curve" smooth="yes"/>
      <point x="18" y="13"/>
      <point x="41" y="61"/>
      <point x="11" y="61" type="curve" smooth="yes"/>
      <point x="-6" y="61"/>
      <point x="-16" y="49"/>
      <point x="-16" y="33" type="curve" smooth="yes"/>
      <point x="-16" y="8"/>
      <point x="13" y="-10"/>
      <point x="51" y="-10" type="curve" smooth="yes"/>
      <point x="136" y="-10"/>
      <point x="215" y="88"/>
      <point x="215" y="194" type="curve" smooth="yes"/>
      <point x="215" y="263"/>
      <point x="180" y="306"/>
      <point x="125" y="306" type="curve" smooth="yes"/>
      <point x="64" y="306"/>
      <point x="10" y="252"/>
    </contour>
    <contour>
      <point x="106" y="131" type="curve" smooth="yes"/>
      <point x="77" y="131"/>
      <point x="63" y="152"/>
      <point x="63" y="193" type="curve" smooth="yes"/>
      <point x="63" y="243"/>
      <point x="91" y="283"/>
      <point x="127" y="283" type="curve" smooth="yes"/>
      <point x="155" y="283"/>
      <point x="170" y="259"/>
      <point x="170" y="216" type="curve" smooth="yes"/>
      <point x="170" y="165"/>
      <point x="144" y="131"/>
    </contour>
  </outline>
</glyph>
<glyph name="Euro" format="1">
  <advance width="712"/>
  <unicode hex="20AC"/>
  <outline>
    <contour>
      <point x="368" y="43" type="curve" smooth="yes"/>
      <point x="285" y="43"/>
      <point x="238" y="98"/>
      <point x="238" y="193" type="curve" smooth="yes"/>
      <point x="238" y="226"/>
      <point x="244" y="263"/>
      <point x="254" y="300" type="curve"/>
      <point x="487" y="300" type="line"/>
      <point x="501" y="352" type="line"/>
      <point x="266" y="352" type="line"/>
      <point x="272" y="381"/>
      <point x="283" y="417"/>
      <point x="290" y="436" type="curve"/>
      <point x="524" y="436" type="line"/>
      <point x="537" y="488" type="line"/>
      <point x="306" y="488" type="line"/>
      <point x="367" y="646"/>
      <point x="451" y="729"/>
      <point x="551" y="729" type="curve" smooth="yes"/>
      <point x="609" y="729"/>
      <point x="642" y="701"/>
      <point x="642" y="651" type="curve" smooth="yes"/>
      <point x="642" y="610"/>
      <point x="619" y="574"/>
      <point x="587" y="565" type="curve"/>
      <point x="595" y="550"/>
      <point x="606" y="544"/>
      <point x="628" y="544" type="curve" smooth="yes"/>
      <point x="685" y="544"/>
      <point x="723" y="583"/>
      <point x="723" y="643" type="curve" smooth="yes"/>
      <point x="723" y="725"/>
      <point x="656" y="780"/>
      <point x="555" y="780" type="curve" smooth="yes"/>
      <point x="405" y="780"/>
      <point x="260" y="666"/>
      <point x="181" y="488" type="curve"/>
      <point x="91" y="488" type="line"/>
      <point x="79" y="436" type="line"/>
      <point x="162" y="436" type="line"/>
      <point x="153" y="414"/>
      <point x="142" y="379"/>
      <point x="137" y="352" type="curve"/>
      <point x="57" y="352" type="line"/>
      <point x="43" y="300" type="line"/>
      <point x="128" y="300" type="line"/>
      <point x="124" y="266"/>
      <point x="124" y="254"/>
      <point x="124" y="237" type="curve" smooth="yes"/>
      <point x="124" y="80"/>
      <point x="206" y="-10"/>
      <point x="348" y="-10" type="curve" smooth="yes"/>
      <point x="486" y="-10"/>
      <point x="616" y="74"/>
      <point x="616" y="173" type="curve" smooth="yes"/>
      <point x="616" y="219"/>
      <point x="596" y="244"/>
      <point x="562" y="244" type="curve" smooth="yes"/>
      <point x="542" y="244"/>
      <point x="522" y="235"/>
      <point x="502" y="220" type="curve"/>
      <point x="519" y="210"/>
      <point x="528" y="195"/>
      <point x="528" y="167" type="curve" smooth="yes"/>
      <point x="528" y="98"/>
      <point x="452" y="43"/>
    </contour>
  </outline>
</glyph>
<glyph name="trademark" format="1">
  <advance width="939"/>
  <unicode hex="2122"/>
  <outline>
    <contour>
      <point x="480" y="770" type="line"/>
      <point x="178" y="770" type="line"/>
      <point x="178" y="694" type="line"/>
      <point x="198" y="694" type="line"/>
      <point x="200" y="745"/>
      <point x="227" y="748"/>
      <point x="262" y="748" type="curve" smooth="yes"/>
      <point x="296" y="748"/>
      <point x="302" y="745"/>
      <point x="302" y="735" type="curve" smooth="yes"/>
      <point x="302" y="531" type="line" smooth="yes"/>
      <point x="302" y="497"/>
      <point x="295" y="484"/>
      <point x="250" y="482" type="curve"/>
      <point x="250" y="462" type="line"/>
      <point x="411" y="462" type="line"/>
      <point x="411" y="482" type="line"/>
      <point x="366" y="484"/>
      <point x="359" y="496"/>
      <point x="359" y="531" type="curve" smooth="yes"/>
      <point x="359" y="735" type="line" smooth="yes"/>
      <point x="359" y="745"/>
      <point x="365" y="748"/>
      <point x="404" y="748" type="curve" smooth="yes"/>
      <point x="445" y="748"/>
      <point x="459" y="736"/>
      <point x="463" y="694" type="curve"/>
      <point x="484" y="694" type="line"/>
    </contour>
    <contour>
      <point x="712" y="544" type="line"/>
      <point x="810" y="770" type="line"/>
      <point x="910" y="770" type="line"/>
      <point x="910" y="750" type="line"/>
      <point x="875" y="749"/>
      <point x="870" y="738"/>
      <point x="870" y="689" type="curve" smooth="yes"/>
      <point x="870" y="543" type="line" smooth="yes"/>
      <point x="870" y="490"/>
      <point x="876" y="483"/>
      <point x="914" y="482" type="curve"/>
      <point x="914" y="462" type="line"/>
      <point x="779" y="462" type="line"/>
      <point x="779" y="482" type="line"/>
      <point x="818" y="483"/>
      <point x="823" y="490"/>
      <point x="823" y="540" type="curve" smooth="yes"/>
      <point x="823" y="720" type="line"/>
      <point x="819" y="720" type="line"/>
      <point x="702" y="458" type="line"/>
      <point x="694" y="458" type="line"/>
      <point x="581" y="720" type="line"/>
      <point x="577" y="720" type="line"/>
      <point x="577" y="543" type="line" smooth="yes"/>
      <point x="577" y="490"/>
      <point x="583" y="483"/>
      <point x="621" y="482" type="curve"/>
      <point x="621" y="462" type="line"/>
      <point x="504" y="462" type="line"/>
      <point x="504" y="482" type="line"/>
      <point x="542" y="483"/>
      <point x="548" y="490"/>
      <point x="548" y="540" type="curve" smooth="yes"/>
      <point x="548" y="692" type="line" smooth="yes"/>
      <point x="548" y="737"/>
      <point x="543" y="748"/>
      <point x="508" y="750" type="curve"/>
      <point x="508" y="770" type="line"/>
      <point x="614" y="770" type="line"/>
      <point x="708" y="544" type="line"/>
    </contour>
  </outline>
</glyph>
<glyph name="minus" format="1">
  <advance width="657"/>
  <unicode hex="2212"/>
  <outline>
    <contour>
      <point x="566" y="363" type="line"/>
      <point x="98" y="363" type="line"/>
      <point x="98" y="313" type="line"/>
      <point x="566" y="313" type="line"/>
    </contour>
  </outline>
</glyph>
<glyph name="f_l" format="1">
  <advance width="617"/>
  <unicode hex="FB02"/>
  <outline>
    <contour>
      <point x="354" y="202" type="line" smooth="yes"/>
      <point x="334" y="130"/>
      <point x="327" y="83"/>
      <point x="327" y="56" type="curve" smooth="yes"/>
      <point x="327" y="13"/>
      <point x="348" y="-10"/>
      <point x="388" y="-10" type="curve" smooth="yes"/>
      <point x="457" y="-10"/>
      <point x="543" y="64"/>
      <point x="590" y="164" type="curve"/>
      <point x="560" y="181" type="line"/>
      <point x="529" y="122"/>
      <point x="472" y="67"/>
      <point x="443" y="67" type="curve" smooth="yes"/>
      <point x="429" y="67"/>
      <point x="422" y="76"/>
      <point x="422" y="93" type="curve" smooth="yes"/>
      <point x="422" y="107"/>
      <point x="427" y="133"/>
      <point x="438" y="172" type="curve" smooth="yes"/>
      <point x="617" y="829" type="line"/>
      <point x="513" y="804" type="line"/>
      <point x="493" y="814"/>
      <point x="463" y="820"/>
      <point x="432" y="820" type="curve" smooth="yes"/>
      <point x="307" y="820"/>
      <point x="227" y="723"/>
      <point x="165" y="496" type="curve"/>
      <point x="70" y="496" type="line"/>
      <point x="57" y="450" type="line"/>
      <point x="153" y="450" type="line"/>
      <point x="8" y="-113" type="line" smooth="yes"/>
      <point x="-6" y="-168"/>
      <point x="-33" y="-200"/>
      <point x="-65" y="-200" type="curve" smooth="yes"/>
      <point x="-113" y="-200"/>
      <point x="-90" y="-130"/>
      <point x="-145" y="-130" type="curve" smooth="yes"/>
      <point x="-175" y="-130"/>
      <point x="-194" y="-151"/>
      <point x="-194" y="-183" type="curve" smooth="yes"/>
      <point x="-194" y="-230"/>
      <point x="-153" y="-260"/>
      <point x="-88" y="-260" type="curve" smooth="yes"/>
      <point x="25" y="-260"/>
      <point x="92" y="-167"/>
      <point x="152" y="73" type="curve" smooth="yes"/>
      <point x="246" y="450" type="line"/>
      <point x="351" y="450" type="line"/>
      <point x="365" y="496" type="line"/>
      <point x="257" y="496" type="line"/>
      <point x="302" y="676"/>
      <point x="364" y="775"/>
      <point x="433" y="775" type="curve" smooth="yes"/>
      <point x="468" y="775"/>
      <point x="489" y="750"/>
      <point x="489" y="712" type="curve" smooth="yes"/>
      <point x="489" y="702"/>
      <point x="487" y="691"/>
      <point x="484" y="679" type="curve" smooth="yes"/>
    </contour>
  </outline>
</glyph>
<glyph name="f_f_l" format="1">
  <advance width="899"/>
  <unicode hex="FB04"/>
  <outline>
    <contour>
      <point x="636" y="202" type="line" smooth="yes"/>
      <point x="616" y="130"/>
      <point x="609" y="83"/>
      <point x="609" y="56" type="curve" smooth="yes"/>
      <point x="609" y="13"/>
      <point x="630" y="-10"/>
      <point x="670" y="-10" type="curve" smooth="yes"/>
      <point x="739" y="-10"/>
      <point x="825" y="64"/>
      <point x="872" y="164" type="curve"/>
      <point x="842" y="181" type="line"/>
      <point x="811" y="122"/>
      <point x="754" y="67"/>
      <point x="725" y="67" type="curve" smooth="yes"/>
      <point x="711" y="67"/>
      <point x="704" y="76"/>
      <point x="704" y="93" type="curve" smooth="yes"/>
      <point x="704" y="107"/>
      <point x="709" y="133"/>
      <point x="720" y="172" type="curve" smooth="yes"/>
      <point x="899" y="829" type="line"/>
      <point x="795" y="804" type="line"/>
      <point x="775" y="814"/>
      <point x="745" y="820"/>
      <point x="714" y="820" type="curve" smooth="yes"/>
      <point x="650" y="820"/>
      <point x="599" y="795"/>
      <point x="555" y="741" type="curve"/>
      <point x="520" y="767"/>
      <point x="465" y="780"/>
      <point x="410" y="780" type="curve" smooth="yes"/>
      <point x="285" y="780"/>
      <point x="225" y="710"/>
      <point x="165" y="496" type="curve"/>
      <point x="70" y="496" type="line"/>
      <point x="57" y="450" type="line"/>
      <point x="153" y="450" type="line"/>
      <point x="8" y="-113" type="line" smooth="yes"/>
      <point x="-6" y="-168"/>
      <point x="-33" y="-200"/>
      <point x="-65" y="-200" type="curve" smooth="yes"/>
      <point x="-113" y="-200"/>
      <point x="-90" y="-130"/>
      <point x="-145" y="-130" type="curve" smooth="yes"/>
      <point x="-175" y="-130"/>
      <point x="-194" y="-151"/>
      <point x="-194" y="-183" type="curve" smooth="yes"/>
      <point x="-194" y="-230"/>
      <point x="-153" y="-260"/>
      <point x="-88" y="-260" type="curve" smooth="yes"/>
      <point x="25" y="-260"/>
      <point x="92" y="-167"/>
      <point x="152" y="73" type="curve" smooth="yes"/>
      <point x="246" y="450" type="line"/>
      <point x="435" y="450" type="line"/>
      <point x="290" y="-113" type="line" smooth="yes"/>
      <point x="276" y="-168"/>
      <point x="249" y="-200"/>
      <point x="217" y="-200" type="curve" smooth="yes"/>
      <point x="175" y="-200"/>
      <point x="195" y="-140"/>
      <point x="147" y="-140" type="curve" smooth="yes"/>
      <point x="117" y="-140"/>
      <point x="98" y="-161"/>
      <point x="98" y="-193" type="curve" smooth="yes"/>
      <point x="98" y="-234"/>
      <point x="135" y="-260"/>
      <point x="194" y="-260" type="curve" smooth="yes"/>
      <point x="307" y="-260"/>
      <point x="374" y="-167"/>
      <point x="434" y="73" type="curve" smooth="yes"/>
      <point x="528" y="450" type="line"/>
      <point x="633" y="450" type="line"/>
      <point x="647" y="496" type="line"/>
      <point x="539" y="496" type="line"/>
      <point x="584" y="676"/>
      <point x="646" y="775"/>
      <point x="715" y="775" type="curve" smooth="yes"/>
      <point x="750" y="775"/>
      <point x="771" y="750"/>
      <point x="771" y="712" type="curve" smooth="yes"/>
      <point x="771" y="702"/>
      <point x="769" y="691"/>
      <point x="766" y="679" type="curve" smooth="yes"/>
    </contour>
    <contour>
      <point x="447" y="496" type="curve"/>
      <point x="257" y="496" type="line"/>
      <point x="304" y="678"/>
      <point x="342" y="735"/>
      <point x="414" y="735" type="curve" smooth="yes"/>
      <point x="451" y="735"/>
      <point x="494" y="715"/>
      <point x="514" y="678" type="curve"/>
      <point x="489" y="630"/>
      <point x="467" y="570"/>
    </contour>
  </outline>
</glyph>
<glyph name="A.ss01" format="1">
  <advance width="728"/>
  <outline>
    <contour>
      <point x="550" y="780" type="line"/>
      <point x="466" y="780" type="line"/>
      <point x="126" y="231" type="line" smooth="yes"/>
      <point x="36" y="85"/>
      <point x="-10" y="40"/>
      <point x="-73" y="40" type="curve"/>
      <point x="-75" y="0" type="line"/>
      <point x="183" y="0" type="line"/>
      <point x="185" y="40" type="line"/>
      <point x="133" y="40"/>
      <point x="102" y="49"/>
      <point x="102" y="78" type="curve" smooth="yes"/>
      <point x="102" y="89"/>
      <point x="106" y="107"/>
      <point x="184" y="224" type="curve" smooth="yes"/>
      <point x="228" y="290" type="line"/>
      <point x="451" y="290" type="line"/>
      <point x="451" y="167" type="line" smooth="yes"/>
      <point x="451" y="58"/>
      <point x="438" y="40"/>
      <point x="360" y="40" type="curve"/>
      <point x="358" y="0" type="line"/>
      <point x="654" y="0" type="line"/>
      <point x="656" y="40" type="line"/>
      <point x="587" y="40"/>
      <point x="561" y="49"/>
      <point x="552" y="89" type="curve" smooth="yes"/>
      <point x="548" y="105"/>
      <point x="547" y="134"/>
      <point x="547" y="166" type="curve" smooth="yes"/>
    </contour>
    <contour>
      <point x="258" y="340" type="line"/>
      <point x="458" y="673" type="line"/>
      <point x="462" y="673" type="line"/>
      <point x="449" y="340" type="line"/>
    </contour>
  </outline>
</glyph>
<glyph name="V.ss01" format="1">
  <advance width="723"/>
  <outline>
    <contour>
      <point x="308" y="116" type="line"/>
      <point x="304" y="116" type="line"/>
      <point x="306" y="257"/>
      <point x="306" y="252"/>
      <point x="313" y="603" type="curve" smooth="yes"/>
      <point x="315" y="712"/>
      <point x="326" y="730"/>
      <point x="404" y="730" type="curve"/>
      <point x="406" y="770" type="line"/>
      <point x="110" y="770" type="line"/>
      <point x="108" y="730" type="line"/>
      <point x="210" y="730"/>
      <point x="217" y="711"/>
      <point x="217" y="608" type="curve" smooth="yes"/>
      <point x="217" y="541"/>
      <point x="214" y="220"/>
      <point x="214" y="-10" type="curve"/>
      <point x="298" y="-10" type="line"/>
      <point x="638" y="539" type="line" smooth="yes"/>
      <point x="728" y="685"/>
      <point x="774" y="730"/>
      <point x="837" y="730" type="curve"/>
      <point x="839" y="770" type="line"/>
      <point x="581" y="770" type="line"/>
      <point x="579" y="730" type="line"/>
      <point x="633" y="730"/>
      <point x="658" y="720"/>
      <point x="658" y="691" type="curve" smooth="yes"/>
      <point x="658" y="679"/>
      <point x="654" y="671"/>
      <point x="576" y="546" type="curve" smooth="yes"/>
    </contour>
  </outline>
</glyph>
<glyph name="breve.cap" format="1">
  <advance width="316"/>
  <outline>
    <contour>
      <point x="158" y="830" type="move" name="_topcap"/>
    </contour>
    <contour>
      <point x="274" y="960" type="line"/>
      <point x="255" y="932"/>
      <point x="210" y="914"/>
      <point x="160" y="914" type="curve" smooth="yes"/>
      <point x="110" y="914"/>
      <point x="74" y="932"/>
      <point x="71" y="960" type="curve"/>
      <point x="35" y="960" type="line"/>
      <point x="33" y="951"/>
      <point x="32" y="943"/>
      <point x="32" y="935" type="curve" smooth="yes"/>
      <point x="32" y="882"/>
      <point x="75" y="845"/>
      <point x="142" y="845" type="curve" smooth="yes"/>
      <point x="217" y="845"/>
      <point x="288" y="893"/>
      <point x="311" y="960" type="curve"/>
    </contour>
  </outline>
</glyph>
<glyph name="c_t" format="1">
  <advance width="794"/>
  <outline>
    <contour>
      <point x="773" y="447" type="line"/>
      <point x="787" y="493" type="line"/>
      <point x="678" y="493" type="line"/>
      <point x="762" y="769" type="line"/>
      <point x="670" y="769" type="line"/>
      <point x="586" y="493" type="line"/>
      <point x="499" y="493" type="line"/>
      <point x="486" y="447" type="line"/>
      <point x="572" y="447" type="line"/>
      <point x="498" y="202" type="line" smooth="yes"/>
      <point x="476" y="128"/>
      <point x="467" y="83"/>
      <point x="467" y="55" type="curve" smooth="yes"/>
      <point x="467" y="13"/>
      <point x="487" y="-10"/>
      <point x="527" y="-10" type="curve" smooth="yes"/>
      <point x="598" y="-10"/>
      <point x="692" y="66"/>
      <point x="743" y="164" type="curve"/>
      <point x="714" y="181" type="line"/>
      <point x="679" y="124"/>
      <point x="615" y="67"/>
      <point x="584" y="67" type="curve" smooth="yes"/>
      <point x="570" y="67"/>
      <point x="563" y="75"/>
      <point x="563" y="90" type="curve" smooth="yes"/>
      <point x="563" y="104"/>
      <point x="570" y="136"/>
      <point x="581" y="172" type="curve" smooth="yes"/>
      <point x="664" y="447" type="line"/>
    </contour>
    <contour>
      <point x="671" y="769" type="line"/>
      <point x="647" y="724"/>
      <point x="608" y="698"/>
      <point x="566" y="698" type="curve" smooth="yes"/>
      <point x="517" y="698"/>
      <point x="464" y="730"/>
      <point x="412" y="730" type="curve" smooth="yes"/>
      <point x="345" y="730"/>
      <point x="293" y="683"/>
      <point x="293" y="622" type="curve" smooth="yes"/>
      <point x="293" y="549"/>
      <point x="361" y="491"/>
      <point x="361" y="491" type="curve"/>
      <point x="392" y="519" type="line"/>
      <point x="359" y="540"/>
      <point x="343" y="566"/>
      <point x="343" y="602" type="curve" smooth="yes"/>
      <point x="343" y="649"/>
      <point x="372" y="679"/>
      <point x="417" y="679" type="curve" smooth="yes"/>
      <point x="461" y="679"/>
      <point x="500" y="648"/>
      <point x="564" y="648" type="curve" smooth="yes"/>
      <point x="609" y="648"/>
      <point x="643" y="674"/>
      <point x="666" y="710" type="curve"/>
    </contour>
    <component base="c"/>
  </outline>
</glyph>
<glyph name="circumflex.cap" format="1">
  <advance width="368"/>
  <outline>
    <contour>
      <point x="184" y="830" type="move" name="_topcap"/>
    </contour>
    <contour>
      <point x="143" y="960" type="line"/>
      <point x="5" y="851" type="line"/>
      <point x="50" y="851" type="line"/>
      <point x="183" y="905" type="line"/>
      <point x="288" y="851" type="line"/>
      <point x="333" y="851" type="line"/>
      <point x="253" y="960" type="line"/>
    </contour>
  </outline>
</glyph>
<glyph name="f_b" format="1">
  <advance width="829"/>
  <outline>
    <contour>
      <point x="626" y="829" type="line"/>
      <point x="513" y="804" type="line"/>
      <point x="493" y="814"/>
      <point x="463" y="820"/>
      <point x="432" y="820" type="curve" smooth="yes"/>
      <point x="307" y="820"/>
      <point x="227" y="723"/>
      <point x="165" y="496" type="curve"/>
      <point x="70" y="496" type="line"/>
      <point x="57" y="450" type="line"/>
      <point x="153" y="450" type="line"/>
      <point x="8" y="-113" type="line" smooth="yes"/>
      <point x="-6" y="-168"/>
      <point x="-33" y="-200"/>
      <point x="-65" y="-200" type="curve" smooth="yes"/>
      <point x="-113" y="-200"/>
      <point x="-90" y="-130"/>
      <point x="-145" y="-130" type="curve" smooth="yes"/>
      <point x="-175" y="-130"/>
      <point x="-194" y="-151"/>
      <point x="-194" y="-183" type="curve" smooth="yes"/>
      <point x="-194" y="-230"/>
      <point x="-153" y="-260"/>
      <point x="-88" y="-260" type="curve" smooth="yes"/>
      <point x="25" y="-260"/>
      <point x="92" y="-167"/>
      <point x="152" y="73" type="curve" smooth="yes"/>
      <point x="246" y="450" type="line"/>
      <point x="351" y="450" type="line"/>
      <point x="365" y="496" type="line"/>
      <point x="257" y="496" type="line"/>
      <point x="302" y="676"/>
      <point x="364" y="775"/>
      <point x="433" y="775" type="curve" smooth="yes"/>
      <point x="468" y="775"/>
      <point x="489" y="750"/>
      <point x="489" y="712" type="curve" smooth="yes"/>
      <point x="489" y="702"/>
      <point x="487" y="688"/>
      <point x="484" y="679" type="curve"/>
    </contour>
    <contour>
      <point x="626" y="829" type="line"/>
      <point x="507" y="753" type="line"/>
      <point x="366" y="301" type="line" smooth="yes"/>
      <point x="338" y="213"/>
      <point x="323" y="149"/>
      <point x="323" y="114" type="curve" smooth="yes"/>
      <point x="323" y="41"/>
      <point x="377" y="-10"/>
      <point x="453" y="-10" type="curve" smooth="yes"/>
      <point x="615" y="-10"/>
      <point x="794" y="207"/>
      <point x="794" y="397" type="curve" smooth="yes"/>
      <point x="794" y="484"/>
      <point x="748" y="539"/>
      <point x="667" y="539" type="curve" smooth="yes"/>
      <point x="602" y="539"/>
      <point x="541" y="503"/>
      <point x="502" y="442" type="curve"/>
      <point x="499" y="444" type="line"/>
    </contour>
    <contour>
      <point x="469" y="41" type="curve" smooth="yes"/>
      <point x="435" y="41"/>
      <point x="418" y="69"/>
      <point x="418" y="123" type="curve" smooth="yes"/>
      <point x="418" y="270"/>
      <point x="550" y="486"/>
      <point x="640" y="486" type="curve" smooth="yes"/>
      <point x="671" y="486"/>
      <point x="695" y="451"/>
      <point x="695" y="405" type="curve" smooth="yes"/>
      <point x="695" y="256"/>
      <point x="562" y="41"/>
    </contour>
  </outline>
</glyph>
<glyph name="f_f_k" format="1">
  <advance width="1099"/>
  <outline>
    <contour>
      <point x="900" y="830" type="line"/>
      <point x="795" y="804" type="line"/>
      <point x="775" y="814"/>
      <point x="745" y="820"/>
      <point x="714" y="820" type="curve" smooth="yes"/>
      <point x="650" y="820"/>
      <point x="599" y="795"/>
      <point x="555" y="741" type="curve"/>
      <point x="520" y="767"/>
      <point x="465" y="780"/>
      <point x="410" y="780" type="curve" smooth="yes"/>
      <point x="285" y="780"/>
      <point x="225" y="710"/>
      <point x="165" y="496" type="curve"/>
      <point x="70" y="496" type="line"/>
      <point x="57" y="450" type="line"/>
      <point x="153" y="450" type="line"/>
      <point x="8" y="-113" type="line" smooth="yes"/>
      <point x="-6" y="-168"/>
      <point x="-33" y="-200"/>
      <point x="-65" y="-200" type="curve" smooth="yes"/>
      <point x="-113" y="-200"/>
      <point x="-90" y="-130"/>
      <point x="-145" y="-130" type="curve" smooth="yes"/>
      <point x="-175" y="-130"/>
      <point x="-194" y="-151"/>
      <point x="-194" y="-183" type="curve" smooth="yes"/>
      <point x="-194" y="-230"/>
      <point x="-153" y="-260"/>
      <point x="-88" y="-260" type="curve" smooth="yes"/>
      <point x="25" y="-260"/>
      <point x="92" y="-167"/>
      <point x="152" y="73" type="curve" smooth="yes"/>
      <point x="246" y="450" type="line"/>
      <point x="435" y="450" type="line"/>
      <point x="290" y="-113" type="line" smooth="yes"/>
      <point x="276" y="-168"/>
      <point x="249" y="-200"/>
      <point x="217" y="-200" type="curve" smooth="yes"/>
      <point x="175" y="-200"/>
      <point x="195" y="-140"/>
      <point x="147" y="-140" type="curve" smooth="yes"/>
      <point x="117" y="-140"/>
      <point x="98" y="-161"/>
      <point x="98" y="-193" type="curve" smooth="yes"/>
      <point x="98" y="-234"/>
      <point x="135" y="-260"/>
      <point x="194" y="-260" type="curve" smooth="yes"/>
      <point x="307" y="-260"/>
      <point x="374" y="-167"/>
      <point x="434" y="73" type="curve" smooth="yes"/>
      <point x="528" y="450" type="line"/>
      <point x="633" y="450" type="line"/>
      <point x="647" y="496" type="line"/>
      <point x="539" y="496" type="line"/>
      <point x="584" y="676"/>
      <point x="646" y="775"/>
      <point x="715" y="775" type="curve" smooth="yes"/>
      <point x="750" y="775"/>
      <point x="771" y="750"/>
      <point x="771" y="712" type="curve" smooth="yes"/>
      <point x="771" y="702"/>
      <point x="769" y="691"/>
      <point x="766" y="679" type="curve"/>
    </contour>
    <contour>
      <point x="447" y="496" type="curve"/>
      <point x="257" y="496" type="line"/>
      <point x="304" y="678"/>
      <point x="342" y="735"/>
      <point x="414" y="735" type="curve" smooth="yes"/>
      <point x="451" y="735"/>
      <point x="494" y="715"/>
      <point x="514" y="678" type="curve"/>
      <point x="489" y="630"/>
      <point x="467" y="570"/>
    </contour>
    <contour>
      <point x="943" y="80" type="curve" smooth="yes"/>
      <point x="925" y="80"/>
      <point x="911" y="97"/>
      <point x="897" y="135" type="curve" smooth="yes"/>
      <point x="846" y="267" type="line"/>
      <point x="872" y="279" type="line" smooth="yes"/>
      <point x="982" y="329"/>
      <point x="1048" y="396"/>
      <point x="1048" y="458" type="curve" smooth="yes"/>
      <point x="1048" y="509"/>
      <point x="1009" y="541"/>
      <point x="947" y="541" type="curve" smooth="yes"/>
      <point x="888" y="541"/>
      <point x="838" y="508"/>
      <point x="800" y="444" type="curve"/>
      <point x="796" y="445" type="line"/>
      <point x="900" y="830" type="line"/>
      <point x="789" y="767" type="line"/>
      <point x="585" y="0" type="line"/>
      <point x="676" y="0" type="line"/>
      <point x="739" y="218" type="line"/>
      <point x="761" y="228" type="line"/>
      <point x="828" y="68" type="line" smooth="yes"/>
      <point x="853" y="8"/>
      <point x="870" y="-10"/>
      <point x="902" y="-10" type="curve" smooth="yes"/>
      <point x="953" y="-10"/>
      <point x="1003" y="41"/>
      <point x="1051" y="141" type="curve"/>
      <point x="1025" y="155" type="line"/>
      <point x="990" y="105"/>
      <point x="963" y="80"/>
    </contour>
    <contour>
      <point x="748" y="268" type="curve"/>
      <point x="778" y="378"/>
      <point x="852" y="473"/>
      <point x="907" y="473" type="curve" smooth="yes"/>
      <point x="933" y="473"/>
      <point x="948" y="458"/>
      <point x="948" y="432" type="curve" smooth="yes"/>
      <point x="948" y="378"/>
      <point x="864" y="308"/>
    </contour>
  </outline>
</glyph>
<glyph name="macron.cap" format="1">
  <advance width="310"/>
  <outline>
    <contour>
      <point x="155" y="830" type="move" name="_topcap"/>
    </contour>
    <contour>
      <point x="283" y="880" type="line"/>
      <point x="296" y="930" type="line"/>
      <point x="26" y="930" type="line"/>
      <point x="13" y="880" type="line"/>
    </contour>
  </outline>
</glyph>
